{
  "source": "C:\\Users\\Peter\\Desktop\\stuff\\MIUN\\quantitative_research\\video_compression\\videos\\BVI-HD\\BVI-HD_CDVL_videos\\ORIG\\KineticFastPainting_1920x1080_60fps.mp4",
  "output": "C:\\Users\\Peter\\Desktop\\stuff\\MIUN\\quantitative_research\\video_compression\\compressed_videos\\BVI-HD\\hevc\\1\\KineticFastPainting_1920x1080_60fps_hevc.mp4",
  "codec": "hevc",
  "ok": "Input #0, mov,mp4,m4a,3gp,3g2,mj2, from 'C:\\Users\\Peter\\Desktop\\stuff\\MIUN\\quantitative_research\\video_compression\\videos\\BVI-HD\\BVI-HD_CDVL_videos\\ORIG\\KineticFastPainting_1920x1080_60fps.mp4':\n  Metadata:\n    major_brand     : isom\n    minor_version   : 512\n    compatible_brands: isomiso2avc1mp41\n    encoder         : Lavf54.28.101\n  Duration: 00:00:05.00, start: 0.000000, bitrate: 477980 kb/s\n  Stream #0:0[0x1](und): Video: h264 (High 4:4:4 Predictive) (avc1 / 0x31637661), yuv420p(progressive), 1920x1080, 477974 kb/s, 60 fps, 60 tbr, 60 tbn (default)\n    Metadata:\n      handler_name    : VideoHandler\n      vendor_id       : [0][0][0][0]\n[out#0/mp4 @ 0000024e19b1ac00] Codec AVOption b:a (set bitrate (in bits/s)) has not been used for any stream. The most likely reason is either wrong type (e.g. a video option with no video streams) or that it is a private option of some decoder which was not actually used for any stream.\nStream mapping:\n  Stream #0:0 -> #0:0 (h264 (native) -> hevc (libx265))\nPress [q] to stop, [?] for help\n[libx265 @ 0000024e19b20f00] Unknown option: \"aq-mode.\nx265 [info]: HEVC encoder version 4.1+190-8f11c33ac\nx265 [info]: build info [Windows][GCC 15.1.0][64 bit] 10bit\nx265 [info]: using cpu capabilities: MMX2 SSE2Fast LZCNT SSSE3 SSE4.2 AVX FMA3 BMI2 AVX2\nx265 [info]: Main 10 profile, Level-4.1 (Main tier)\nx265 [info]: Thread pool created using 12 threads\nx265 [info]: Slices                              : 1\nx265 [info]: frame threads / pool features       : 3 / wpp(17 rows)\nx265 [info]: Coding QT: max CU size, min CU size : 64 / 8\nx265 [info]: Residual QT: max TU size, max depth : 32 / 1 inter / 1 intra\nx265 [info]: ME / range / subpel / merge         : star / 57 / 3 / 3\nx265 [info]: Keyframe min / max / scenecut / bias  : 25 / 250 / 40 / 5.00 \nx265 [info]: Lookahead / bframes / badapt        : 25 / 4 / 2\nx265 [info]: b-pyramid / weightp / weightb       : 1 / 1 / 0\nx265 [info]: References / ref-limit  cu / depth  : 4 / on / on\nx265 [info]: AQ: mode / str / qg-size / cu-tree  : 2 / 1.0 / 32 / 1\nx265 [info]: Rate Control / qCompress            : ABR-1000 kbps / 0.60\nx265 [info]: VBV/HRD buffer / max-rate / init    : 1000 / 1000 / 0.750\nx265 [info]: tools: rect limit-modes rd=4 psy-rd=2.00 rdoq=2 psy-rdoq=1.00\nx265 [info]: tools: rskip mode=1 signhide tmvp strong-intra-smoothing lslices=4\nx265 [info]: tools: deblock sao dhdr10-info\nOutput #0, mp4, to 'C:\\Users\\Peter\\Desktop\\stuff\\MIUN\\quantitative_research\\video_compression\\compressed_videos\\BVI-HD\\hevc\\1\\KineticFastPainting_1920x1080_60fps_hevc.mp4':\n  Metadata:\n    major_brand     : isom\n    minor_version   : 512\n    compatible_brands: isomiso2avc1mp41\n    encoder         : Lavf62.3.100\n  Stream #0:0(und): Video: hevc (hev1 / 0x31766568), yuv420p10le(tv, progressive), 1920x1080, q=2-31, 1000 kb/s, 60 fps, 15360 tbn (default)\n    Metadata:\n      encoder         : Lavc62.11.100 libx265\n      handler_name    : VideoHandler\n      vendor_id       : [0][0][0][0]\n    Side data:\n      cpb: bitrate max/min/avg: 1000000/0/1000000 buffer size: 1000000 vbv_delay: N/A\nframe=    0 fps=0.0 q=0.0 size=       0KiB time=N/A bitrate=N/A speed=N/A elapsed=0:00:01.08    \nframe=    0 fps=0.0 q=0.0 size=       0KiB time=N/A bitrate=N/A speed=N/A elapsed=0:00:01.60    \nframe=    0 fps=0.0 q=0.0 size=       0KiB time=N/A bitrate=N/A speed=N/A elapsed=0:00:02.13    \nframe=    0 fps=0.0 q=0.0 size=       0KiB time=N/A bitrate=N/A speed=N/A elapsed=0:00:02.64    \nframe=    0 fps=0.0 q=0.0 size=       0KiB time=N/A bitrate=N/A speed=N/A elapsed=0:00:03.15    \nframe=    0 fps=0.0 q=0.0 size=       0KiB time=N/A bitrate=N/A speed=N/A elapsed=0:00:03.68    \nframe=    0 fps=0.0 q=0.0 size=       0KiB time=N/A bitrate=N/A speed=N/A elapsed=0:00:04.18    \nframe=    0 fps=0.0 q=0.0 size=       0KiB time=N/A bitrate=N/A speed=N/A elapsed=0:00:04.74    \nframe=    0 fps=0.0 q=0.0 size=       0KiB time=N/A bitrate=N/A speed=N/A elapsed=0:00:05.25    \nframe=    0 fps=0.0 q=0.0 size=       0KiB time=N/A bitrate=N/A speed=N/A elapsed=0:00:05.77    \nframe=    0 fps=0.0 q=0.0 size=       0KiB time=N/A bitrate=N/A speed=N/A elapsed=0:00:06.29    \nframe=    1 fps=0.1 q=51.0 size=       0KiB time=-00:00:00.01 bitrate=N/A speed=N/A elapsed=0:00:06.80    \nframe=    2 fps=0.3 q=51.0 size=       0KiB time=00:00:00.00 bitrate=N/A speed=   0x elapsed=0:00:07.32    \nframe=    3 fps=0.4 q=51.0 size=       0KiB time=00:00:00.01 bitrate=  21.1kbits/s speed=0.00213x elapsed=0:00:07.83    \nframe=    3 fps=0.4 q=51.0 size=       0KiB time=00:00:00.01 bitrate=  21.1kbits/s speed=0.00199x elapsed=0:00:08.37    \nframe=    3 fps=0.3 q=51.0 size=       0KiB time=00:00:00.01 bitrate=  21.1kbits/s speed=0.00187x elapsed=0:00:08.89    \nframe=    4 fps=0.4 q=51.0 size=       0KiB time=00:00:00.03 bitrate=  10.6kbits/s speed=0.00354x elapsed=0:00:09.42    \nframe=    5 fps=0.5 q=51.0 size=       0KiB time=00:00:00.05 bitrate=   7.0kbits/s speed=0.00503x elapsed=0:00:09.93    \nframe=    6 fps=0.6 q=51.0 size=       0KiB time=00:00:00.06 bitrate=   5.3kbits/s speed=0.00638x elapsed=0:00:10.45    \nframe=    6 fps=0.5 q=51.0 size=       0KiB time=00:00:00.06 bitrate=   5.3kbits/s speed=0.00608x elapsed=0:00:10.97    \nframe=    7 fps=0.6 q=51.0 size=       0KiB time=00:00:00.08 bitrate=   4.2kbits/s speed=0.00725x elapsed=0:00:11.48    \nframe=    7 fps=0.6 q=51.0 size=       0KiB time=00:00:00.08 bitrate=   4.2kbits/s speed=0.00694x elapsed=0:00:12.00    \nframe=    7 fps=0.6 q=51.0 size=       0KiB time=00:00:00.08 bitrate=   4.2kbits/s speed=0.00666x elapsed=0:00:12.51    \nframe=    8 fps=0.6 q=51.0 size=       0KiB time=00:00:00.10 bitrate=   3.5kbits/s speed=0.00767x elapsed=0:00:13.03    \nframe=    9 fps=0.7 q=51.0 size=       0KiB time=00:00:00.11 bitrate=   3.0kbits/s speed=0.00861x elapsed=0:00:13.55    \nframe=    9 fps=0.6 q=51.0 size=       0KiB time=00:00:00.11 bitrate=   3.0kbits/s speed=0.0083x elapsed=0:00:14.06    \nframe=   10 fps=0.7 q=51.0 size=       0KiB time=00:00:00.13 bitrate=   2.6kbits/s speed=0.00914x elapsed=0:00:14.58    \nframe=   10 fps=0.7 q=51.0 size=       0KiB time=00:00:00.13 bitrate=   2.6kbits/s speed=0.00883x elapsed=0:00:15.09    \nframe=   11 fps=0.7 q=51.0 size=       0KiB time=00:00:00.15 bitrate=   2.3kbits/s speed=0.0096x elapsed=0:00:15.62    \nframe=   11 fps=0.7 q=51.0 size=       0KiB time=00:00:00.15 bitrate=   2.3kbits/s speed=0.00929x elapsed=0:00:16.15    \nframe=   12 fps=0.7 q=51.0 size=       0KiB time=00:00:00.16 bitrate=   2.1kbits/s speed=0.00999x elapsed=0:00:16.68    \nframe=   13 fps=0.8 q=51.0 size=       0KiB time=00:00:00.18 bitrate=   1.9kbits/s speed=0.0107x elapsed=0:00:17.20    \nframe=   14 fps=0.8 q=51.0 size=       0KiB time=00:00:00.20 bitrate=   1.8kbits/s speed=0.0113x elapsed=0:00:17.72    \nframe=   15 fps=0.8 q=51.0 size=       0KiB time=00:00:00.21 bitrate=   1.6kbits/s speed=0.0119x elapsed=0:00:18.23    \nframe=   16 fps=0.9 q=51.0 size=       0KiB time=00:00:00.23 bitrate=   1.5kbits/s speed=0.0124x elapsed=0:00:18.75    \nframe=   16 fps=0.8 q=51.0 size=       0KiB time=00:00:00.23 bitrate=   1.5kbits/s speed=0.0121x elapsed=0:00:19.26    \nframe=   17 fps=0.9 q=51.0 size=       0KiB time=00:00:00.25 bitrate=   1.4kbits/s speed=0.0126x elapsed=0:00:19.78    \nframe=   17 fps=0.8 q=51.0 size=       0KiB time=00:00:00.25 bitrate=   1.4kbits/s speed=0.0123x elapsed=0:00:20.30    \nframe=   18 fps=0.9 q=51.0 size=       0KiB time=00:00:00.26 bitrate=   1.3kbits/s speed=0.0128x elapsed=0:00:20.83    \nframe=   19 fps=0.9 q=51.0 size=       0KiB time=00:00:00.28 bitrate=   1.2kbits/s speed=0.0133x elapsed=0:00:21.35    \nframe=   20 fps=0.9 q=51.0 size=       0KiB time=00:00:00.30 bitrate=   1.2kbits/s speed=0.0137x elapsed=0:00:21.87    \nframe=   21 fps=0.9 q=51.0 size=       0KiB time=00:00:00.31 bitrate=   1.1kbits/s speed=0.0141x elapsed=0:00:22.39    \nframe=   22 fps=1.0 q=51.0 size=       0KiB time=00:00:00.33 bitrate=   1.1kbits/s speed=0.0145x elapsed=0:00:22.99    \nframe=   22 fps=0.9 q=51.0 size=       0KiB time=00:00:00.33 bitrate=   1.1kbits/s speed=0.0142x elapsed=0:00:23.54    \nframe=   23 fps=1.0 q=51.0 size=       0KiB time=00:00:00.35 bitrate=   1.0kbits/s speed=0.0145x elapsed=0:00:24.07    \nframe=   23 fps=0.9 q=51.0 size=       0KiB time=00:00:00.35 bitrate=   1.0kbits/s speed=0.0142x elapsed=0:00:24.60    \nframe=   24 fps=1.0 q=51.0 size=       0KiB time=00:00:00.36 bitrate=   1.0kbits/s speed=0.0146x elapsed=0:00:25.12    \nframe=   25 fps=1.0 q=51.0 size=       0KiB time=00:00:00.38 bitrate=   0.9kbits/s speed=0.0149x elapsed=0:00:25.64    \nframe=   25 fps=1.0 q=51.0 size=       0KiB time=00:00:00.38 bitrate=   0.9kbits/s speed=0.0146x elapsed=0:00:26.22    \nframe=   26 fps=1.0 q=51.0 size=       0KiB time=00:00:00.40 bitrate=   0.9kbits/s speed=0.0149x elapsed=0:00:26.81    \nframe=   26 fps=0.9 q=51.0 size=       0KiB time=00:00:00.40 bitrate=   0.9kbits/s speed=0.0146x elapsed=0:00:27.40    \nframe=   26 fps=0.9 q=51.0 size=       0KiB time=00:00:00.40 bitrate=   0.9kbits/s speed=0.0143x elapsed=0:00:27.95    \nframe=   27 fps=0.9 q=51.0 size=       0KiB time=00:00:00.41 bitrate=   0.8kbits/s speed=0.0146x elapsed=0:00:28.49    \nframe=   27 fps=0.9 q=51.0 size=       0KiB time=00:00:00.41 bitrate=   0.8kbits/s speed=0.0143x elapsed=0:00:29.09    \nframe=   27 fps=0.9 q=51.0 size=       0KiB time=00:00:00.41 bitrate=   0.8kbits/s speed=0.0141x elapsed=0:00:29.61    \nframe=   27 fps=0.9 q=51.0 size=       0KiB time=00:00:00.41 bitrate=   0.8kbits/s speed=0.0138x elapsed=0:00:30.15    \nframe=   27 fps=0.9 q=51.0 size=       0KiB time=00:00:00.41 bitrate=   0.8kbits/s speed=0.0136x elapsed=0:00:30.69    \nframe=   28 fps=0.9 q=51.0 size=       0KiB time=00:00:00.43 bitrate=   0.8kbits/s speed=0.0139x elapsed=0:00:31.23    \nframe=   28 fps=0.9 q=51.0 size=       0KiB time=00:00:00.43 bitrate=   0.8kbits/s speed=0.0136x elapsed=0:00:31.79    \nframe=   28 fps=0.9 q=51.0 size=       0KiB time=00:00:00.43 bitrate=   0.8kbits/s speed=0.0134x elapsed=0:00:32.37    \nframe=   29 fps=0.9 q=51.0 size=       0KiB time=00:00:00.45 bitrate=   0.8kbits/s speed=0.0137x elapsed=0:00:32.92    \nframe=   29 fps=0.9 q=51.0 size=       0KiB time=00:00:00.45 bitrate=   0.8kbits/s speed=0.0134x elapsed=0:00:33.49    \nframe=   30 fps=0.9 q=51.0 size=       0KiB time=00:00:00.46 bitrate=   0.8kbits/s speed=0.0137x elapsed=0:00:34.07    \nframe=   30 fps=0.9 q=51.0 size=       0KiB time=00:00:00.46 bitrate=   0.8kbits/s speed=0.0135x elapsed=0:00:34.62    \nframe=   30 fps=0.9 q=51.0 size=       0KiB time=00:00:00.46 bitrate=   0.8kbits/s speed=0.0133x elapsed=0:00:35.17    \nframe=   31 fps=0.9 q=51.0 size=       0KiB time=00:00:00.48 bitrate=   0.7kbits/s speed=0.0135x elapsed=0:00:35.71    \nframe=   32 fps=0.9 q=51.0 size=       0KiB time=00:00:00.50 bitrate=   0.7kbits/s speed=0.0138x elapsed=0:00:36.31    \nframe=   32 fps=0.9 q=51.0 size=       0KiB time=00:00:00.50 bitrate=   0.7kbits/s speed=0.0136x elapsed=0:00:36.85    \nframe=   32 fps=0.9 q=51.0 size=       0KiB time=00:00:00.50 bitrate=   0.7kbits/s speed=0.0134x elapsed=0:00:37.38    \nframe=   32 fps=0.8 q=51.0 size=       0KiB time=00:00:00.50 bitrate=   0.7kbits/s speed=0.0132x elapsed=0:00:37.97    \nframe=   32 fps=0.8 q=51.0 size=       0KiB time=00:00:00.50 bitrate=   0.7kbits/s speed=0.013x elapsed=0:00:38.50    \nframe=   32 fps=0.8 q=51.0 size=       0KiB time=00:00:00.50 bitrate=   0.7kbits/s speed=0.0128x elapsed=0:00:39.05    \nframe=   33 fps=0.8 q=51.0 size=       0KiB time=00:00:00.51 bitrate=   0.7kbits/s speed=0.013x elapsed=0:00:39.59    \nframe=   33 fps=0.8 q=51.0 size=       0KiB time=00:00:00.51 bitrate=   0.7kbits/s speed=0.0129x elapsed=0:00:40.15    \nframe=   33 fps=0.8 q=51.0 size=       0KiB time=00:00:00.51 bitrate=   0.7kbits/s speed=0.0127x elapsed=0:00:40.68    \nframe=   33 fps=0.8 q=51.0 size=       0KiB time=00:00:00.51 bitrate=   0.7kbits/s speed=0.0125x elapsed=0:00:41.23    \nframe=   34 fps=0.8 q=51.0 size=       0KiB time=00:00:00.53 bitrate=   0.7kbits/s speed=0.0128x elapsed=0:00:41.82    \nframe=   34 fps=0.8 q=51.0 size=       0KiB time=00:00:00.53 bitrate=   0.7kbits/s speed=0.0126x elapsed=0:00:42.38    \nframe=   34 fps=0.8 q=51.0 size=       0KiB time=00:00:00.53 bitrate=   0.7kbits/s speed=0.0124x elapsed=0:00:42.95    \nframe=   34 fps=0.8 q=51.0 size=       0KiB time=00:00:00.53 bitrate=   0.7kbits/s speed=0.0123x elapsed=0:00:43.50    \nframe=   34 fps=0.8 q=51.0 size=       0KiB time=00:00:00.53 bitrate=   0.7kbits/s speed=0.0121x elapsed=0:00:44.13    \nframe=   35 fps=0.8 q=51.0 size=       0KiB time=00:00:00.55 bitrate=   0.6kbits/s speed=0.0123x elapsed=0:00:44.70    \nframe=   35 fps=0.8 q=51.0 size=       0KiB time=00:00:00.55 bitrate=   0.6kbits/s speed=0.0121x elapsed=0:00:45.28    \nframe=   35 fps=0.8 q=51.0 size=       0KiB time=00:00:00.55 bitrate=   0.6kbits/s speed=0.012x elapsed=0:00:45.86    \nframe=   35 fps=0.8 q=51.0 size=       0KiB time=00:00:00.55 bitrate=   0.6kbits/s speed=0.0118x elapsed=0:00:46.53    \nframe=   35 fps=0.7 q=51.0 size=       0KiB time=00:00:00.55 bitrate=   0.6kbits/s speed=0.0117x elapsed=0:00:47.09    \nframe=   36 fps=0.8 q=51.0 size=       0KiB time=00:00:00.56 bitrate=   0.6kbits/s speed=0.0119x elapsed=0:00:47.61    \nframe=   36 fps=0.7 q=51.0 size=       0KiB time=00:00:00.56 bitrate=   0.6kbits/s speed=0.0118x elapsed=0:00:48.15    \nframe=   36 fps=0.7 q=51.0 size=       0KiB time=00:00:00.56 bitrate=   0.6kbits/s speed=0.0116x elapsed=0:00:48.72    \nframe=   36 fps=0.7 q=51.0 size=       0KiB time=00:00:00.56 bitrate=   0.6kbits/s speed=0.0115x elapsed=0:00:49.33    \nframe=   36 fps=0.7 q=51.0 size=       0KiB time=00:00:00.56 bitrate=   0.6kbits/s speed=0.0113x elapsed=0:00:49.97    \nframe=   36 fps=0.7 q=51.0 size=       0KiB time=00:00:00.56 bitrate=   0.6kbits/s speed=0.0112x elapsed=0:00:50.50    \nframe=   37 fps=0.7 q=51.0 size=       0KiB time=00:00:00.58 bitrate=   0.6kbits/s speed=0.0114x elapsed=0:00:51.05    \nframe=   37 fps=0.7 q=51.0 size=       0KiB time=00:00:00.58 bitrate=   0.6kbits/s speed=0.0113x elapsed=0:00:51.59    \nframe=   38 fps=0.7 q=51.0 size=       0KiB time=00:00:00.60 bitrate=   0.6kbits/s speed=0.0115x elapsed=0:00:52.14    \nframe=   39 fps=0.7 q=51.0 size=       0KiB time=00:00:00.61 bitrate=   0.6kbits/s speed=0.0117x elapsed=0:00:52.70    \nframe=   40 fps=0.8 q=51.0 size=       0KiB time=00:00:00.63 bitrate=   0.6kbits/s speed=0.0119x elapsed=0:00:53.25    \nframe=   40 fps=0.7 q=51.0 size=       0KiB time=00:00:00.63 bitrate=   0.6kbits/s speed=0.0118x elapsed=0:00:53.84    \nframe=   40 fps=0.7 q=51.0 size=       0KiB time=00:00:00.63 bitrate=   0.6kbits/s speed=0.0116x elapsed=0:00:54.39    \nframe=   40 fps=0.7 q=51.0 size=       0KiB time=00:00:00.63 bitrate=   0.6kbits/s speed=0.0115x elapsed=0:00:54.90    \nframe=   40 fps=0.7 q=51.0 size=       0KiB time=00:00:00.63 bitrate=   0.6kbits/s speed=0.0114x elapsed=0:00:55.44    \nframe=   41 fps=0.7 q=51.0 size=       0KiB time=00:00:00.63 bitrate=   0.6kbits/s speed=0.0113x elapsed=0:00:56.00    \nframe=   41 fps=0.7 q=51.0 size=       0KiB time=00:00:00.65 bitrate=   0.5kbits/s speed=0.0115x elapsed=0:00:56.56    \nframe=   42 fps=0.7 q=51.0 size=       0KiB time=00:00:00.66 bitrate=   0.5kbits/s speed=0.0117x elapsed=0:00:57.11    \nframe=   42 fps=0.7 q=51.0 size=       0KiB time=00:00:00.66 bitrate=   0.5kbits/s speed=0.0116x elapsed=0:00:57.68    \nframe=   42 fps=0.7 q=51.0 size=       0KiB time=00:00:00.66 bitrate=   0.5kbits/s speed=0.0114x elapsed=0:00:58.23    \nframe=   42 fps=0.7 q=51.0 size=       0KiB time=00:00:00.66 bitrate=   0.5kbits/s speed=0.0113x elapsed=0:00:58.77    \nframe=   42 fps=0.7 q=51.0 size=       0KiB time=00:00:00.66 bitrate=   0.5kbits/s speed=0.0112x elapsed=0:00:59.35    \nframe=   42 fps=0.7 q=51.0 size=       0KiB time=00:00:00.66 bitrate=   0.5kbits/s speed=0.0111x elapsed=0:00:59.94    \nframe=   43 fps=0.7 q=51.0 size=       0KiB time=00:00:00.68 bitrate=   0.5kbits/s speed=0.0113x elapsed=0:01:00.53    \nframe=   43 fps=0.7 q=51.0 size=       0KiB time=00:00:00.68 bitrate=   0.5kbits/s speed=0.0112x elapsed=0:01:01.11    \nframe=   43 fps=0.7 q=51.0 size=       0KiB time=00:00:00.68 bitrate=   0.5kbits/s speed=0.0111x elapsed=0:01:01.71    \nframe=   43 fps=0.7 q=51.0 size=       0KiB time=00:00:00.68 bitrate=   0.5kbits/s speed=0.011x elapsed=0:01:02.34    \nframe=   43 fps=0.7 q=51.0 size=       0KiB time=00:00:00.68 bitrate=   0.5kbits/s speed=0.0109x elapsed=0:01:02.95    \nframe=   44 fps=0.7 q=51.0 size=       0KiB time=00:00:00.70 bitrate=   0.5kbits/s speed=0.011x elapsed=0:01:03.49    \nframe=   44 fps=0.7 q=51.0 size=       0KiB time=00:00:00.70 bitrate=   0.5kbits/s speed=0.0109x elapsed=0:01:04.03    \nframe=   44 fps=0.7 q=51.0 size=       0KiB time=00:00:00.70 bitrate=   0.5kbits/s speed=0.0108x elapsed=0:01:04.56    \nframe=   45 fps=0.7 q=51.0 size=       0KiB time=00:00:00.71 bitrate=   0.5kbits/s speed=0.011x elapsed=0:01:05.11    \nframe=   46 fps=0.7 q=51.0 size=       0KiB time=00:00:00.73 bitrate=   0.5kbits/s speed=0.0112x elapsed=0:01:05.68    \nframe=   46 fps=0.7 q=51.0 size=       0KiB time=00:00:00.73 bitrate=   0.5kbits/s speed=0.0111x elapsed=0:01:06.23    \nframe=   46 fps=0.7 q=51.0 size=       0KiB time=00:00:00.73 bitrate=   0.5kbits/s speed=0.011x elapsed=0:01:06.78    \nframe=   47 fps=0.7 q=51.0 size=       0KiB time=00:00:00.75 bitrate=   0.5kbits/s speed=0.0111x elapsed=0:01:07.30    \nframe=   47 fps=0.7 q=51.0 size=       0KiB time=00:00:00.75 bitrate=   0.5kbits/s speed=0.0111x elapsed=0:01:07.82    \nframe=   47 fps=0.7 q=51.0 size=       0KiB time=00:00:00.75 bitrate=   0.5kbits/s speed=0.011x elapsed=0:01:08.34    \nframe=   48 fps=0.7 q=51.0 size=       0KiB time=00:00:00.76 bitrate=   0.5kbits/s speed=0.0111x elapsed=0:01:08.89    \nframe=   48 fps=0.7 q=51.0 size=       0KiB time=00:00:00.76 bitrate=   0.5kbits/s speed=0.011x elapsed=0:01:09.40    \nframe=   49 fps=0.7 q=51.0 size=       0KiB time=00:00:00.78 bitrate=   0.4kbits/s speed=0.0112x elapsed=0:01:09.92    \nframe=   49 fps=0.7 q=51.0 size=       0KiB time=00:00:00.78 bitrate=   0.4kbits/s speed=0.0111x elapsed=0:01:10.45    \nframe=   49 fps=0.7 q=51.0 size=       0KiB time=00:00:00.78 bitrate=   0.4kbits/s speed=0.011x elapsed=0:01:10.98    \nframe=   49 fps=0.7 q=51.0 size=       0KiB time=00:00:00.78 bitrate=   0.4kbits/s speed=0.011x elapsed=0:01:11.53    \nframe=   49 fps=0.7 q=51.0 size=       0KiB time=00:00:00.78 bitrate=   0.4kbits/s speed=0.0109x elapsed=0:01:12.06    \nframe=   49 fps=0.7 q=51.0 size=       0KiB time=00:00:00.78 bitrate=   0.4kbits/s speed=0.0108x elapsed=0:01:12.61    \nframe=   49 fps=0.7 q=51.0 size=       0KiB time=00:00:00.78 bitrate=   0.4kbits/s speed=0.0107x elapsed=0:01:13.20    \nframe=   49 fps=0.7 q=51.0 size=       0KiB time=00:00:00.78 bitrate=   0.4kbits/s speed=0.0106x elapsed=0:01:13.73    \nframe=   50 fps=0.7 q=51.0 size=       0KiB time=00:00:00.80 bitrate=   0.4kbits/s speed=0.0108x elapsed=0:01:14.24    \nframe=   50 fps=0.7 q=51.0 size=       0KiB time=00:00:00.80 bitrate=   0.4kbits/s speed=0.0107x elapsed=0:01:14.79    \nframe=   50 fps=0.7 q=51.0 size=       0KiB time=00:00:00.80 bitrate=   0.4kbits/s speed=0.0106x elapsed=0:01:15.38    \nframe=   50 fps=0.7 q=51.0 size=       0KiB time=00:00:00.80 bitrate=   0.4kbits/s speed=0.0105x elapsed=0:01:15.96    \nframe=   50 fps=0.7 q=51.0 size=       0KiB time=00:00:00.80 bitrate=   0.4kbits/s speed=0.0105x elapsed=0:01:16.52    \nframe=   50 fps=0.6 q=51.0 size=       0KiB time=00:00:00.80 bitrate=   0.4kbits/s speed=0.0104x elapsed=0:01:17.09    \nframe=   51 fps=0.7 q=51.0 size=       0KiB time=00:00:00.81 bitrate=   0.4kbits/s speed=0.0105x elapsed=0:01:17.62    \nframe=   52 fps=0.7 q=51.0 size=       0KiB time=00:00:00.83 bitrate=   0.4kbits/s speed=0.0107x elapsed=0:01:18.19    \nframe=   52 fps=0.7 q=51.0 size=       0KiB time=00:00:00.83 bitrate=   0.4kbits/s speed=0.0106x elapsed=0:01:18.79    \nframe=   52 fps=0.7 q=51.0 size=       0KiB time=00:00:00.83 bitrate=   0.4kbits/s speed=0.0105x elapsed=0:01:19.36    \nframe=   53 fps=0.7 q=51.0 size=       0KiB time=00:00:00.85 bitrate=   0.4kbits/s speed=0.0106x elapsed=0:01:19.91    \nframe=   53 fps=0.7 q=51.0 size=       0KiB time=00:00:00.85 bitrate=   0.4kbits/s speed=0.0106x elapsed=0:01:20.48    \nframe=   53 fps=0.7 q=51.0 size=       0KiB time=00:00:00.85 bitrate=   0.4kbits/s speed=0.0105x elapsed=0:01:21.05    \nframe=   53 fps=0.6 q=51.0 size=       0KiB time=00:00:00.85 bitrate=   0.4kbits/s speed=0.0104x elapsed=0:01:21.64    \nframe=   53 fps=0.6 q=51.0 size=       0KiB time=00:00:00.85 bitrate=   0.4kbits/s speed=0.0103x elapsed=0:01:22.23    \nframe=   54 fps=0.7 q=51.0 size=       0KiB time=00:00:00.86 bitrate=   0.4kbits/s speed=0.0105x elapsed=0:01:22.76    \nframe=   54 fps=0.6 q=51.0 size=       0KiB time=00:00:00.86 bitrate=   0.4kbits/s speed=0.0104x elapsed=0:01:23.28    \nframe=   54 fps=0.6 q=51.0 size=       0KiB time=00:00:00.86 bitrate=   0.4kbits/s speed=0.0103x elapsed=0:01:23.82    \nframe=   54 fps=0.6 q=51.0 size=       0KiB time=00:00:00.86 bitrate=   0.4kbits/s speed=0.0103x elapsed=0:01:24.37    \nframe=   54 fps=0.6 q=51.0 size=       0KiB time=00:00:00.86 bitrate=   0.4kbits/s speed=0.0102x elapsed=0:01:24.93    \nframe=   55 fps=0.6 q=51.0 size=       0KiB time=00:00:00.88 bitrate=   0.4kbits/s speed=0.0103x elapsed=0:01:25.48    \nframe=   56 fps=0.7 q=51.0 size=       0KiB time=00:00:00.88 bitrate=   0.4kbits/s speed=0.0103x elapsed=0:01:26.04    \nframe=   56 fps=0.6 q=51.0 size=       0KiB time=00:00:00.90 bitrate=   0.4kbits/s speed=0.0104x elapsed=0:01:26.67    \nframe=   56 fps=0.6 q=51.0 size=       0KiB time=00:00:00.90 bitrate=   0.4kbits/s speed=0.0103x elapsed=0:01:27.21    \nframe=   57 fps=0.6 q=51.0 size=       0KiB time=00:00:00.91 bitrate=   0.4kbits/s speed=0.0104x elapsed=0:01:27.76    \nframe=   57 fps=0.6 q=51.0 size=       0KiB time=00:00:00.91 bitrate=   0.4kbits/s speed=0.0104x elapsed=0:01:28.31    \nframe=   57 fps=0.6 q=51.0 size=       0KiB time=00:00:00.91 bitrate=   0.4kbits/s speed=0.0103x elapsed=0:01:28.84    \nframe=   57 fps=0.6 q=51.0 size=       0KiB time=00:00:00.91 bitrate=   0.4kbits/s speed=0.0103x elapsed=0:01:29.39    \nframe=   58 fps=0.6 q=51.0 size=       0KiB time=00:00:00.93 bitrate=   0.4kbits/s speed=0.0104x elapsed=0:01:29.99    \nframe=   58 fps=0.6 q=51.0 size=       0KiB time=00:00:00.93 bitrate=   0.4kbits/s speed=0.0103x elapsed=0:01:30.54    \nframe=   58 fps=0.6 q=51.0 size=       0KiB time=00:00:00.93 bitrate=   0.4kbits/s speed=0.0102x elapsed=0:01:31.18    \nframe=   58 fps=0.6 q=51.0 size=       0KiB time=00:00:00.93 bitrate=   0.4kbits/s speed=0.0102x elapsed=0:01:31.72    \nframe=   58 fps=0.6 q=51.0 size=       0KiB time=00:00:00.93 bitrate=   0.4kbits/s speed=0.0101x elapsed=0:01:32.24    \nframe=   59 fps=0.6 q=51.0 size=       0KiB time=00:00:00.95 bitrate=   0.4kbits/s speed=0.0102x elapsed=0:01:32.79    \nframe=   59 fps=0.6 q=51.0 size=       0KiB time=00:00:00.95 bitrate=   0.4kbits/s speed=0.0102x elapsed=0:01:33.40    \nframe=   59 fps=0.6 q=51.0 size=       0KiB time=00:00:00.95 bitrate=   0.4kbits/s speed=0.0101x elapsed=0:01:33.97    \nframe=   59 fps=0.6 q=51.0 size=       0KiB time=00:00:00.95 bitrate=   0.4kbits/s speed=0.0101x elapsed=0:01:34.51    \nframe=   60 fps=0.6 q=51.0 size=       0KiB time=00:00:00.96 bitrate=   0.4kbits/s speed=0.0102x elapsed=0:01:35.09    \nframe=   60 fps=0.6 q=51.0 size=       0KiB time=00:00:00.96 bitrate=   0.4kbits/s speed=0.0101x elapsed=0:01:35.66    \nframe=   60 fps=0.6 q=51.0 size=       0KiB time=00:00:00.96 bitrate=   0.4kbits/s speed=0.01x elapsed=0:01:36.21    \nframe=   60 fps=0.6 q=51.0 size=       0KiB time=00:00:00.96 bitrate=   0.4kbits/s speed=0.00999x elapsed=0:01:36.77    \nframe=   60 fps=0.6 q=51.0 size=       0KiB time=00:00:00.96 bitrate=   0.4kbits/s speed=0.00993x elapsed=0:01:37.30    \nframe=   61 fps=0.6 q=51.0 size=       0KiB time=00:00:00.98 bitrate=   0.4kbits/s speed=0.01x elapsed=0:01:37.86    \nframe=   61 fps=0.6 q=51.0 size=       0KiB time=00:00:00.98 bitrate=   0.4kbits/s speed=0.00999x elapsed=0:01:38.41    \nframe=   61 fps=0.6 q=51.0 size=       0KiB time=00:00:00.98 bitrate=   0.4kbits/s speed=0.00994x elapsed=0:01:38.94    \nframe=   61 fps=0.6 q=51.0 size=       0KiB time=00:00:00.98 bitrate=   0.4kbits/s speed=0.00989x elapsed=0:01:39.46    \nframe=   62 fps=0.6 q=51.0 size=       0KiB time=00:00:00.98 bitrate=   0.4kbits/s speed=0.00983x elapsed=0:01:39.98    \nframe=   62 fps=0.6 q=51.0 size=       0KiB time=00:00:01.00 bitrate=   0.4kbits/s speed=0.00994x elapsed=0:01:40.56    \nframe=   62 fps=0.6 q=51.0 size=       0KiB time=00:00:01.00 bitrate=   0.4kbits/s speed=0.00989x elapsed=0:01:41.13    \nframe=   62 fps=0.6 q=51.0 size=       0KiB time=00:00:01.00 bitrate=   0.4kbits/s speed=0.00983x elapsed=0:01:41.70    \nframe=   63 fps=0.6 q=51.0 size=       0KiB time=00:00:01.01 bitrate=   0.3kbits/s speed=0.00995x elapsed=0:01:42.21    \nframe=   63 fps=0.6 q=51.0 size=       0KiB time=00:00:01.01 bitrate=   0.3kbits/s speed=0.00989x elapsed=0:01:42.75    \nframe=   63 fps=0.6 q=51.0 size=       0KiB time=00:00:01.01 bitrate=   0.3kbits/s speed=0.00984x elapsed=0:01:43.32    \nframe=   63 fps=0.6 q=51.0 size=       0KiB time=00:00:01.01 bitrate=   0.3kbits/s speed=0.00978x elapsed=0:01:43.90    \nframe=   64 fps=0.6 q=51.0 size=       0KiB time=00:00:01.03 bitrate=   0.3kbits/s speed=0.00989x elapsed=0:01:44.44    \nframe=   64 fps=0.6 q=51.0 size=       0KiB time=00:00:01.03 bitrate=   0.3kbits/s speed=0.00984x elapsed=0:01:44.97    \nframe=   65 fps=0.6 q=51.0 size=       0KiB time=00:00:01.03 bitrate=   0.3kbits/s speed=0.00979x elapsed=0:01:45.54    \nframe=   65 fps=0.6 q=51.0 size=       0KiB time=00:00:01.05 bitrate=   0.3kbits/s speed=0.00989x elapsed=0:01:46.16    \nframe=   66 fps=0.6 q=51.0 size=       0KiB time=00:00:01.06 bitrate=   0.3kbits/s speed=0.00999x elapsed=0:01:46.76    \nframe=   66 fps=0.6 q=51.0 size=       0KiB time=00:00:01.06 bitrate=   0.3kbits/s speed=0.00993x elapsed=0:01:47.38    \nframe=   66 fps=0.6 q=51.0 size=       0KiB time=00:00:01.06 bitrate=   0.3kbits/s speed=0.00988x elapsed=0:01:48.00    \nframe=   66 fps=0.6 q=51.0 size=       0KiB time=00:00:01.06 bitrate=   0.3kbits/s speed=0.00982x elapsed=0:01:48.57    \nframe=   66 fps=0.6 q=51.0 size=       0KiB time=00:00:01.06 bitrate=   0.3kbits/s speed=0.00977x elapsed=0:01:49.16    \nframe=   66 fps=0.6 q=51.0 size=       0KiB time=00:00:01.06 bitrate=   0.3kbits/s speed=0.00971x elapsed=0:01:49.79    \nframe=   66 fps=0.6 q=51.0 size=       0KiB time=00:00:01.06 bitrate=   0.3kbits/s speed=0.00967x elapsed=0:01:50.36    \nframe=   66 fps=0.6 q=51.0 size=       0KiB time=00:00:01.06 bitrate=   0.3kbits/s speed=0.00962x elapsed=0:01:50.91    \nframe=   66 fps=0.6 q=51.0 size=       0KiB time=00:00:01.06 bitrate=   0.3kbits/s speed=0.00956x elapsed=0:01:51.53    \nframe=   66 fps=0.6 q=51.0 size=       0KiB time=00:00:01.06 bitrate=   0.3kbits/s speed=0.00951x elapsed=0:01:52.14    \nframe=   66 fps=0.6 q=51.0 size=       0KiB time=00:00:01.06 bitrate=   0.3kbits/s speed=0.00946x elapsed=0:01:52.77    \nframe=   67 fps=0.6 q=51.0 size=       0KiB time=00:00:01.08 bitrate=   0.3kbits/s speed=0.00956x elapsed=0:01:53.31    \nframe=   67 fps=0.6 q=51.0 size=       0KiB time=00:00:01.08 bitrate=   0.3kbits/s speed=0.00951x elapsed=0:01:53.88    \nframe=   67 fps=0.6 q=51.0 size=       0KiB time=00:00:01.08 bitrate=   0.3kbits/s speed=0.00946x elapsed=0:01:54.52    \nframe=   67 fps=0.6 q=51.0 size=       0KiB time=00:00:01.08 bitrate=   0.3kbits/s speed=0.0094x elapsed=0:01:55.19    \nframe=   67 fps=0.6 q=51.0 size=       0KiB time=00:00:01.08 bitrate=   0.3kbits/s speed=0.00935x elapsed=0:01:55.83    \nframe=   67 fps=0.6 q=51.0 size=       0KiB time=00:00:01.08 bitrate=   0.3kbits/s speed=0.0093x elapsed=0:01:56.48    \nframe=   67 fps=0.6 q=51.0 size=       0KiB time=00:00:01.08 bitrate=   0.3kbits/s speed=0.00925x elapsed=0:01:57.16    \nframe=   67 fps=0.6 q=51.0 size=       0KiB time=00:00:01.08 bitrate=   0.3kbits/s speed=0.0092x elapsed=0:01:57.73    \nframe=   68 fps=0.6 q=51.0 size=       0KiB time=00:00:01.10 bitrate=   0.3kbits/s speed=0.00929x elapsed=0:01:58.36    \nframe=   69 fps=0.6 q=51.0 size=       0KiB time=00:00:01.11 bitrate=   0.3kbits/s speed=0.00938x elapsed=0:01:58.99    \nframe=   69 fps=0.6 q=51.0 size=       0KiB time=00:00:01.11 bitrate=   0.3kbits/s speed=0.00934x elapsed=0:01:59.53    \nframe=   69 fps=0.6 q=51.0 size=       0KiB time=00:00:01.11 bitrate=   0.3kbits/s speed=0.0093x elapsed=0:02:00.06    \nframe=   69 fps=0.6 q=51.0 size=       0KiB time=00:00:01.11 bitrate=   0.3kbits/s speed=0.00926x elapsed=0:02:00.60    \nframe=   69 fps=0.6 q=51.0 size=       0KiB time=00:00:01.11 bitrate=   0.3kbits/s speed=0.00922x elapsed=0:02:01.13    \nframe=   70 fps=0.6 q=51.0 size=       0KiB time=00:00:01.13 bitrate=   0.3kbits/s speed=0.00931x elapsed=0:02:01.69    \nframe=   70 fps=0.6 q=51.0 size=       0KiB time=00:00:01.13 bitrate=   0.3kbits/s speed=0.00927x elapsed=0:02:02.23    \nframe=   70 fps=0.6 q=51.0 size=       0KiB time=00:00:01.13 bitrate=   0.3kbits/s speed=0.00923x elapsed=0:02:02.78    \nframe=   70 fps=0.6 q=51.0 size=       0KiB time=00:00:01.13 bitrate=   0.3kbits/s speed=0.00919x elapsed=0:02:03.36    \nframe=   70 fps=0.6 q=51.0 size=       0KiB time=00:00:01.13 bitrate=   0.3kbits/s speed=0.00915x elapsed=0:02:03.92    \nframe=   71 fps=0.6 q=51.0 size=       0KiB time=00:00:01.15 bitrate=   0.3kbits/s speed=0.00924x elapsed=0:02:04.49    \nframe=   71 fps=0.6 q=51.0 size=       0KiB time=00:00:01.15 bitrate=   0.3kbits/s speed=0.0092x elapsed=0:02:05.03    \nframe=   71 fps=0.6 q=51.0 size=       0KiB time=00:00:01.15 bitrate=   0.3kbits/s speed=0.00916x elapsed=0:02:05.58    \nframe=   72 fps=0.6 q=51.0 size=       0KiB time=00:00:01.16 bitrate=   0.3kbits/s speed=0.00925x elapsed=0:02:06.16    \nframe=   74 fps=0.6 q=51.0 size=       0KiB time=00:00:01.20 bitrate=   0.3kbits/s speed=0.00947x elapsed=0:02:06.69    \nframe=   74 fps=0.6 q=51.0 size=       0KiB time=00:00:01.20 bitrate=   0.3kbits/s speed=0.00943x elapsed=0:02:07.22    \nframe=   74 fps=0.6 q=51.0 size=       0KiB time=00:00:01.20 bitrate=   0.3kbits/s speed=0.00939x elapsed=0:02:07.78    \nframe=   74 fps=0.6 q=51.0 size=       0KiB time=00:00:01.20 bitrate=   0.3kbits/s speed=0.00935x elapsed=0:02:08.34    \nframe=   74 fps=0.6 q=51.0 size=       0KiB time=00:00:01.20 bitrate=   0.3kbits/s speed=0.0093x elapsed=0:02:08.96    \nframe=   74 fps=0.6 q=51.0 size=       0KiB time=00:00:01.20 bitrate=   0.3kbits/s speed=0.00926x elapsed=0:02:09.57    \nframe=   75 fps=0.6 q=51.0 size=       0KiB time=00:00:01.21 bitrate=   0.3kbits/s speed=0.00935x elapsed=0:02:10.18    \nframe=   75 fps=0.6 q=51.0 size=       0KiB time=00:00:01.21 bitrate=   0.3kbits/s speed=0.00931x elapsed=0:02:10.72    \nframe=   76 fps=0.6 q=51.0 size=       0KiB time=00:00:01.23 bitrate=   0.3kbits/s speed=0.0094x elapsed=0:02:11.24    \nframe=   76 fps=0.6 q=51.0 size=       0KiB time=00:00:01.23 bitrate=   0.3kbits/s speed=0.00936x elapsed=0:02:11.76    \nframe=   76 fps=0.6 q=51.0 size=       0KiB time=00:00:01.23 bitrate=   0.3kbits/s speed=0.00932x elapsed=0:02:12.28    \nframe=   76 fps=0.6 q=51.0 size=       0KiB time=00:00:01.23 bitrate=   0.3kbits/s speed=0.00929x elapsed=0:02:12.80    \nframe=   77 fps=0.6 q=51.0 size=       0KiB time=00:00:01.25 bitrate=   0.3kbits/s speed=0.00937x elapsed=0:02:13.38    \nframe=   78 fps=0.6 q=51.0 size=       0KiB time=00:00:01.26 bitrate=   0.3kbits/s speed=0.00946x elapsed=0:02:13.90    \nframe=   78 fps=0.6 q=51.0 size=       0KiB time=00:00:01.26 bitrate=   0.3kbits/s speed=0.00942x elapsed=0:02:14.46    \nframe=   78 fps=0.6 q=51.0 size=       0KiB time=00:00:01.26 bitrate=   0.3kbits/s speed=0.00938x elapsed=0:02:14.97    \nframe=   78 fps=0.6 q=51.0 size=       0KiB time=00:00:01.26 bitrate=   0.3kbits/s speed=0.00935x elapsed=0:02:15.51    \nframe=   78 fps=0.6 q=51.0 size=       0KiB time=00:00:01.26 bitrate=   0.3kbits/s speed=0.00931x elapsed=0:02:16.06    \nframe=   78 fps=0.6 q=51.0 size=       0KiB time=00:00:01.26 bitrate=   0.3kbits/s speed=0.00927x elapsed=0:02:16.59    \nframe=   79 fps=0.6 q=51.0 size=       0KiB time=00:00:01.28 bitrate=   0.3kbits/s speed=0.00936x elapsed=0:02:17.15    \nframe=   79 fps=0.6 q=51.0 size=       0KiB time=00:00:01.28 bitrate=   0.3kbits/s speed=0.00931x elapsed=0:02:17.78    \nframe=   79 fps=0.6 q=51.0 size=       0KiB time=00:00:01.28 bitrate=   0.3kbits/s speed=0.00928x elapsed=0:02:18.30    \nframe=   80 fps=0.6 q=51.0 size=       0KiB time=00:00:01.30 bitrate=   0.3kbits/s speed=0.00936x elapsed=0:02:18.86    \nframe=   81 fps=0.6 q=51.0 size=       0KiB time=00:00:01.31 bitrate=   0.3kbits/s speed=0.00945x elapsed=0:02:19.38    \nframe=   81 fps=0.6 q=51.0 size=       0KiB time=00:00:01.31 bitrate=   0.3kbits/s speed=0.00941x elapsed=0:02:19.92    \nframe=   81 fps=0.6 q=51.0 size=       0KiB time=00:00:01.31 bitrate=   0.3kbits/s speed=0.00937x elapsed=0:02:20.48    \nframe=   82 fps=0.6 q=51.0 size=       0KiB time=00:00:01.33 bitrate=   0.3kbits/s speed=0.00945x elapsed=0:02:21.03    \nframe=   82 fps=0.6 q=51.0 size=       0KiB time=00:00:01.33 bitrate=   0.3kbits/s speed=0.00942x elapsed=0:02:21.55    \nframe=   83 fps=0.6 q=51.0 size=       0KiB time=00:00:01.35 bitrate=   0.3kbits/s speed=0.0095x elapsed=0:02:22.15    \nframe=   83 fps=0.6 q=51.0 size=       0KiB time=00:00:01.35 bitrate=   0.3kbits/s speed=0.00945x elapsed=0:02:22.80    \nframe=   84 fps=0.6 q=51.0 size=       0KiB time=00:00:01.36 bitrate=   0.3kbits/s speed=0.00953x elapsed=0:02:23.37    \nframe=   85 fps=0.6 q=51.0 size=       0KiB time=00:00:01.38 bitrate=   0.3kbits/s speed=0.00961x elapsed=0:02:23.94    \nframe=   86 fps=0.6 q=51.0 size=       0KiB time=00:00:01.40 bitrate=   0.3kbits/s speed=0.00969x elapsed=0:02:24.50    \nframe=   86 fps=0.6 q=51.0 size=       0KiB time=00:00:01.40 bitrate=   0.3kbits/s speed=0.00965x elapsed=0:02:25.03    \nframe=   86 fps=0.6 q=51.0 size=       0KiB time=00:00:01.40 bitrate=   0.3kbits/s speed=0.00961x elapsed=0:02:25.61    \nframe=   86 fps=0.6 q=51.0 size=       0KiB time=00:00:01.40 bitrate=   0.3kbits/s speed=0.00958x elapsed=0:02:26.19    \nframe=   86 fps=0.6 q=51.0 size=       0KiB time=00:00:01.40 bitrate=   0.3kbits/s speed=0.00954x elapsed=0:02:26.72    \nframe=   87 fps=0.6 q=51.0 size=       0KiB time=00:00:01.41 bitrate=   0.2kbits/s speed=0.00962x elapsed=0:02:27.30    \nframe=   87 fps=0.6 q=51.0 size=       0KiB time=00:00:01.41 bitrate=   0.2kbits/s speed=0.00958x elapsed=0:02:27.90    \nframe=   87 fps=0.6 q=51.0 size=       0KiB time=00:00:01.41 bitrate=   0.2kbits/s speed=0.00954x elapsed=0:02:28.45    \nframe=   88 fps=0.6 q=51.0 size=       0KiB time=00:00:01.43 bitrate=   0.2kbits/s speed=0.00962x elapsed=0:02:28.97    \nframe=   88 fps=0.6 q=51.0 size=       0KiB time=00:00:01.43 bitrate=   0.2kbits/s speed=0.00959x elapsed=0:02:29.52    \nframe=   89 fps=0.6 q=51.0 size=       0KiB time=00:00:01.45 bitrate=   0.2kbits/s speed=0.00966x elapsed=0:02:30.08    \nframe=   89 fps=0.6 q=51.0 size=       0KiB time=00:00:01.45 bitrate=   0.2kbits/s speed=0.00962x elapsed=0:02:30.65    \nframe=   89 fps=0.6 q=51.0 size=       0KiB time=00:00:01.45 bitrate=   0.2kbits/s speed=0.00959x elapsed=0:02:31.18    \nframe=   89 fps=0.6 q=51.0 size=       0KiB time=00:00:01.45 bitrate=   0.2kbits/s speed=0.00956x elapsed=0:02:31.71    \nframe=   89 fps=0.6 q=51.0 size=       0KiB time=00:00:01.45 bitrate=   0.2kbits/s speed=0.00952x elapsed=0:02:32.28    \nframe=   89 fps=0.6 q=51.0 size=       0KiB time=00:00:01.45 bitrate=   0.2kbits/s speed=0.00949x elapsed=0:02:32.84    \nframe=   89 fps=0.6 q=51.0 size=       0KiB time=00:00:01.45 bitrate=   0.2kbits/s speed=0.00945x elapsed=0:02:33.39    \nframe=   90 fps=0.6 q=51.0 size=       0KiB time=00:00:01.46 bitrate=   0.2kbits/s speed=0.00953x elapsed=0:02:33.93    \nframe=   90 fps=0.6 q=51.0 size=       0KiB time=00:00:01.46 bitrate=   0.2kbits/s speed=0.00949x elapsed=0:02:34.48    \nframe=   90 fps=0.6 q=51.0 size=       0KiB time=00:00:01.46 bitrate=   0.2kbits/s speed=0.00946x elapsed=0:02:35.01    \nframe=   91 fps=0.6 q=51.0 size=       0KiB time=00:00:01.48 bitrate=   0.2kbits/s speed=0.00954x elapsed=0:02:35.52    \nframe=   91 fps=0.6 q=51.0 size=       0KiB time=00:00:01.48 bitrate=   0.2kbits/s speed=0.0095x elapsed=0:02:36.06    \nframe=   91 fps=0.6 q=51.0 size=       0KiB time=00:00:01.48 bitrate=   0.2kbits/s speed=0.00947x elapsed=0:02:36.61    \nframe=   91 fps=0.6 q=51.0 size=       0KiB time=00:00:01.48 bitrate=   0.2kbits/s speed=0.00944x elapsed=0:02:37.12    \nframe=   92 fps=0.6 q=51.0 size=       0KiB time=00:00:01.50 bitrate=   0.2kbits/s speed=0.00951x elapsed=0:02:37.66    \nframe=   93 fps=0.6 q=51.0 size=       0KiB time=00:00:01.51 bitrate=   0.2kbits/s speed=0.00959x elapsed=0:02:38.21    \nframe=   93 fps=0.6 q=51.0 size=       0KiB time=00:00:01.51 bitrate=   0.2kbits/s speed=0.00955x elapsed=0:02:38.75    \nframe=   93 fps=0.6 q=51.0 size=       0KiB time=00:00:01.51 bitrate=   0.2kbits/s speed=0.00952x elapsed=0:02:39.30    \nframe=   93 fps=0.6 q=51.0 size=       0KiB time=00:00:01.51 bitrate=   0.2kbits/s speed=0.00949x elapsed=0:02:39.84    \nframe=   93 fps=0.6 q=51.0 size=       0KiB time=00:00:01.51 bitrate=   0.2kbits/s speed=0.00945x elapsed=0:02:40.41    \nframe=   94 fps=0.6 q=51.0 size=       0KiB time=00:00:01.53 bitrate=   0.2kbits/s speed=0.00952x elapsed=0:02:41.00    \nframe=   94 fps=0.6 q=51.0 size=       0KiB time=00:00:01.53 bitrate=   0.2kbits/s speed=0.00949x elapsed=0:02:41.61    \nframe=   95 fps=0.6 q=51.0 size=       0KiB time=00:00:01.55 bitrate=   0.2kbits/s speed=0.00956x elapsed=0:02:42.16    \nframe=   95 fps=0.6 q=51.0 size=       0KiB time=00:00:01.55 bitrate=   0.2kbits/s speed=0.00953x elapsed=0:02:42.67    \nframe=   96 fps=0.6 q=51.0 size=       0KiB time=00:00:01.56 bitrate=   0.2kbits/s speed=0.0096x elapsed=0:02:43.20    \nframe=   96 fps=0.6 q=51.0 size=       0KiB time=00:00:01.56 bitrate=   0.2kbits/s speed=0.00956x elapsed=0:02:43.79    \nframe=   96 fps=0.6 q=51.0 size=       0KiB time=00:00:01.56 bitrate=   0.2kbits/s speed=0.00953x elapsed=0:02:44.33    \nframe=   96 fps=0.6 q=51.0 size=       0KiB time=00:00:01.56 bitrate=   0.2kbits/s speed=0.0095x elapsed=0:02:44.88    \nframe=   96 fps=0.6 q=51.0 size=       0KiB time=00:00:01.56 bitrate=   0.2kbits/s speed=0.00947x elapsed=0:02:45.41    \nframe=   96 fps=0.6 q=51.0 size=       0KiB time=00:00:01.56 bitrate=   0.2kbits/s speed=0.00944x elapsed=0:02:45.93    \nframe=   97 fps=0.6 q=51.0 size=       0KiB time=00:00:01.58 bitrate=   0.2kbits/s speed=0.00951x elapsed=0:02:46.48    \nframe=   97 fps=0.6 q=51.0 size=       0KiB time=00:00:01.58 bitrate=   0.2kbits/s speed=0.00948x elapsed=0:02:47.02    \nframe=   97 fps=0.6 q=51.0 size=       0KiB time=00:00:01.58 bitrate=   0.2kbits/s speed=0.00945x elapsed=0:02:47.53    \nframe=   97 fps=0.6 q=51.0 size=       0KiB time=00:00:01.58 bitrate=   0.2kbits/s speed=0.00942x elapsed=0:02:48.06    \nframe=   97 fps=0.6 q=51.0 size=       0KiB time=00:00:01.58 bitrate=   0.2kbits/s speed=0.00939x elapsed=0:02:48.61    \nframe=   98 fps=0.6 q=51.0 size=       0KiB time=00:00:01.60 bitrate=   0.2kbits/s speed=0.00946x elapsed=0:02:49.16    \nframe=  100 fps=0.6 q=51.0 size=       0KiB time=00:00:01.63 bitrate=   0.2kbits/s speed=0.00962x elapsed=0:02:49.70    \nframe=  101 fps=0.6 q=51.0 size=       0KiB time=00:00:01.63 bitrate=   0.2kbits/s speed=0.00959x elapsed=0:02:50.25    \nframe=  101 fps=0.6 q=51.0 size=       0KiB time=00:00:01.65 bitrate=   0.2kbits/s speed=0.00966x elapsed=0:02:50.84    \nframe=  101 fps=0.6 q=51.0 size=       0KiB time=00:00:01.65 bitrate=   0.2kbits/s speed=0.00963x elapsed=0:02:51.39    \nframe=  101 fps=0.6 q=51.0 size=       0KiB time=00:00:01.65 bitrate=   0.2kbits/s speed=0.0096x elapsed=0:02:51.95    \nframe=  102 fps=0.6 q=51.0 size=       0KiB time=00:00:01.66 bitrate=   0.2kbits/s speed=0.00966x elapsed=0:02:52.49    \nframe=  103 fps=0.6 q=51.0 size=       0KiB time=00:00:01.68 bitrate=   0.2kbits/s speed=0.00973x elapsed=0:02:53.01    \nframe=  104 fps=0.6 q=51.0 size=       0KiB time=00:00:01.70 bitrate=   0.2kbits/s speed=0.0098x elapsed=0:02:53.54    \nframe=  105 fps=0.6 q=51.0 size=     256KiB time=00:00:01.71 bitrate=1221.8kbits/s speed=0.00986x elapsed=0:02:54.04    \nframe=  105 fps=0.6 q=51.0 size=     256KiB time=00:00:01.71 bitrate=1221.8kbits/s speed=0.00983x elapsed=0:02:54.60    \nframe=  106 fps=0.6 q=51.0 size=     256KiB time=00:00:01.73 bitrate=1210.1kbits/s speed=0.0099x elapsed=0:02:55.13    \nframe=  107 fps=0.6 q=51.0 size=     256KiB time=00:00:01.75 bitrate=1198.6kbits/s speed=0.00996x elapsed=0:02:55.67    \nframe=  107 fps=0.6 q=51.0 size=     256KiB time=00:00:01.75 bitrate=1198.6kbits/s speed=0.00993x elapsed=0:02:56.20    \nframe=  107 fps=0.6 q=51.0 size=     256KiB time=00:00:01.75 bitrate=1198.6kbits/s speed=0.0099x elapsed=0:02:56.75    \nframe=  107 fps=0.6 q=51.0 size=     256KiB time=00:00:01.75 bitrate=1198.6kbits/s speed=0.00987x elapsed=0:02:57.33    \nframe=  107 fps=0.6 q=51.0 size=     256KiB time=00:00:01.75 bitrate=1198.6kbits/s speed=0.00984x elapsed=0:02:57.86    \nframe=  108 fps=0.6 q=51.0 size=     256KiB time=00:00:01.76 bitrate=1187.3kbits/s speed=0.0099x elapsed=0:02:58.42    \nframe=  108 fps=0.6 q=51.0 size=     256KiB time=00:00:01.76 bitrate=1187.3kbits/s speed=0.00987x elapsed=0:02:58.99    \nframe=  109 fps=0.6 q=51.0 size=     256KiB time=00:00:01.78 bitrate=1176.2kbits/s speed=0.00993x elapsed=0:02:59.58    \nframe=  109 fps=0.6 q=51.0 size=     256KiB time=00:00:01.78 bitrate=1176.2kbits/s speed=0.0099x elapsed=0:03:00.17    \nframe=  109 fps=0.6 q=51.0 size=     256KiB time=00:00:01.78 bitrate=1176.2kbits/s speed=0.00987x elapsed=0:03:00.74    \nframe=  109 fps=0.6 q=51.0 size=     256KiB time=00:00:01.78 bitrate=1176.2kbits/s speed=0.00984x elapsed=0:03:01.28    \nframe=  109 fps=0.6 q=51.0 size=     256KiB time=00:00:01.78 bitrate=1176.2kbits/s speed=0.00981x elapsed=0:03:01.83    \nframe=  109 fps=0.6 q=51.0 size=     256KiB time=00:00:01.78 bitrate=1176.2kbits/s speed=0.00978x elapsed=0:03:02.34    \nframe=  110 fps=0.6 q=51.0 size=     256KiB time=00:00:01.80 bitrate=1165.3kbits/s speed=0.00984x elapsed=0:03:02.87    \nframe=  111 fps=0.6 q=51.0 size=     256KiB time=00:00:01.81 bitrate=1154.6kbits/s speed=0.00991x elapsed=0:03:03.40    \nframe=  111 fps=0.6 q=51.0 size=     256KiB time=00:00:01.81 bitrate=1154.6kbits/s speed=0.00987x elapsed=0:03:03.98    \nframe=  111 fps=0.6 q=51.0 size=     256KiB time=00:00:01.81 bitrate=1154.6kbits/s speed=0.00985x elapsed=0:03:04.52    \nframe=  111 fps=0.6 q=51.0 size=     256KiB time=00:00:01.81 bitrate=1154.6kbits/s speed=0.00982x elapsed=0:03:05.04    \nframe=  112 fps=0.6 q=51.0 size=     256KiB time=00:00:01.83 bitrate=1144.1kbits/s speed=0.00988x elapsed=0:03:05.56    \nframe=  113 fps=0.6 q=51.0 size=     256KiB time=00:00:01.85 bitrate=1133.8kbits/s speed=0.00994x elapsed=0:03:06.08    \nframe=  113 fps=0.6 q=51.0 size=     256KiB time=00:00:01.85 bitrate=1133.8kbits/s speed=0.00991x elapsed=0:03:06.62    \nframe=  114 fps=0.6 q=51.0 size=     256KiB time=00:00:01.86 bitrate=1123.7kbits/s speed=0.00997x elapsed=0:03:07.14    \nframe=  114 fps=0.6 q=51.0 size=     256KiB time=00:00:01.86 bitrate=1123.7kbits/s speed=0.00995x elapsed=0:03:07.65    \nframe=  115 fps=0.6 q=51.0 size=     256KiB time=00:00:01.88 bitrate=1113.7kbits/s speed=0.01x elapsed=0:03:08.19    \nframe=  115 fps=0.6 q=51.0 size=     256KiB time=00:00:01.88 bitrate=1113.7kbits/s speed=0.00998x elapsed=0:03:08.73    \nframe=  115 fps=0.6 q=51.0 size=     256KiB time=00:00:01.88 bitrate=1113.7kbits/s speed=0.00995x elapsed=0:03:09.24    \nframe=  116 fps=0.6 q=51.0 size=     256KiB time=00:00:01.90 bitrate=1103.9kbits/s speed=0.01x elapsed=0:03:09.76    \nframe=  117 fps=0.6 q=51.0 size=     256KiB time=00:00:01.91 bitrate=1094.3kbits/s speed=0.0101x elapsed=0:03:10.31    \nframe=  118 fps=0.6 q=51.0 size=     256KiB time=00:00:01.93 bitrate=1084.9kbits/s speed=0.0101x elapsed=0:03:10.83    \nframe=  118 fps=0.6 q=51.0 size=     256KiB time=00:00:01.93 bitrate=1084.9kbits/s speed=0.0101x elapsed=0:03:11.36    \nframe=  120 fps=0.6 q=51.0 size=     256KiB time=00:00:01.96 bitrate=1066.5kbits/s speed=0.0102x elapsed=0:03:11.89    \nframe=  121 fps=0.6 q=51.0 size=     256KiB time=00:00:01.98 bitrate=1057.6kbits/s speed=0.0103x elapsed=0:03:12.45    \nframe=  121 fps=0.6 q=51.0 size=     256KiB time=00:00:01.98 bitrate=1057.6kbits/s speed=0.0103x elapsed=0:03:12.98    \nframe=  122 fps=0.6 q=51.0 size=     256KiB time=00:00:02.00 bitrate=1048.8kbits/s speed=0.0103x elapsed=0:03:13.52    \nframe=  123 fps=0.6 q=51.0 size=     256KiB time=00:00:02.01 bitrate=1040.1kbits/s speed=0.0104x elapsed=0:03:14.04    \nframe=  124 fps=0.6 q=51.0 size=     256KiB time=00:00:02.03 bitrate=1031.6kbits/s speed=0.0104x elapsed=0:03:14.58    \nframe=  125 fps=0.6 q=51.0 size=     256KiB time=00:00:02.05 bitrate=1023.2kbits/s speed=0.0105x elapsed=0:03:15.13    \nframe=  126 fps=0.6 q=51.0 size=     256KiB time=00:00:02.06 bitrate=1014.9kbits/s speed=0.0106x elapsed=0:03:15.65    \nframe=  127 fps=0.6 q=51.0 size=     256KiB time=00:00:02.08 bitrate=1006.8kbits/s speed=0.0106x elapsed=0:03:16.17    \nframe=  128 fps=0.7 q=51.0 size=     256KiB time=00:00:02.10 bitrate= 998.8kbits/s speed=0.0107x elapsed=0:03:16.70    \nframe=  129 fps=0.7 q=51.0 size=     256KiB time=00:00:02.11 bitrate= 990.9kbits/s speed=0.0107x elapsed=0:03:17.25    \nframe=  130 fps=0.7 q=51.0 size=     256KiB time=00:00:02.13 bitrate= 983.2kbits/s speed=0.0108x elapsed=0:03:17.78    \nframe=  130 fps=0.7 q=51.0 size=     256KiB time=00:00:02.13 bitrate= 983.2kbits/s speed=0.0108x elapsed=0:03:18.31    \nframe=  130 fps=0.7 q=51.0 size=     256KiB time=00:00:02.13 bitrate= 983.2kbits/s speed=0.0107x elapsed=0:03:18.86    \nframe=  130 fps=0.7 q=51.0 size=     256KiB time=00:00:02.13 bitrate= 983.2kbits/s speed=0.0107x elapsed=0:03:19.38    \nframe=  131 fps=0.7 q=51.0 size=     256KiB time=00:00:02.15 bitrate= 975.6kbits/s speed=0.0108x elapsed=0:03:19.89    \nframe=  132 fps=0.7 q=51.0 size=     256KiB time=00:00:02.16 bitrate= 968.1kbits/s speed=0.0108x elapsed=0:03:20.43    \nframe=  132 fps=0.7 q=51.0 size=     256KiB time=00:00:02.16 bitrate= 968.1kbits/s speed=0.0108x elapsed=0:03:20.95    \nframe=  132 fps=0.7 q=51.0 size=     256KiB time=00:00:02.16 bitrate= 968.1kbits/s speed=0.0108x elapsed=0:03:21.47    \nframe=  133 fps=0.7 q=51.0 size=     256KiB time=00:00:02.18 bitrate= 960.7kbits/s speed=0.0108x elapsed=0:03:22.04    \nframe=  134 fps=0.7 q=51.0 size=     256KiB time=00:00:02.20 bitrate= 953.4kbits/s speed=0.0109x elapsed=0:03:22.56    \nframe=  134 fps=0.7 q=51.0 size=     256KiB time=00:00:02.20 bitrate= 953.4kbits/s speed=0.0108x elapsed=0:03:23.08    \nframe=  135 fps=0.7 q=51.0 size=     256KiB time=00:00:02.21 bitrate= 946.2kbits/s speed=0.0109x elapsed=0:03:23.62    \nframe=  135 fps=0.7 q=51.0 size=     256KiB time=00:00:02.21 bitrate= 946.2kbits/s speed=0.0109x elapsed=0:03:24.16    \nframe=  135 fps=0.7 q=51.0 size=     256KiB time=00:00:02.21 bitrate= 946.2kbits/s speed=0.0108x elapsed=0:03:24.68    \nframe=  136 fps=0.7 q=51.0 size=     256KiB time=00:00:02.23 bitrate= 939.2kbits/s speed=0.0109x elapsed=0:03:25.19    \nframe=  137 fps=0.7 q=51.0 size=     256KiB time=00:00:02.25 bitrate= 932.2kbits/s speed=0.0109x elapsed=0:03:25.73    \nframe=  137 fps=0.7 q=51.0 size=     256KiB time=00:00:02.25 bitrate= 932.2kbits/s speed=0.0109x elapsed=0:03:26.27    \nframe=  138 fps=0.7 q=51.0 size=     256KiB time=00:00:02.26 bitrate= 925.4kbits/s speed=0.011x elapsed=0:03:26.81    \nframe=  138 fps=0.7 q=51.0 size=     256KiB time=00:00:02.26 bitrate= 925.4kbits/s speed=0.0109x elapsed=0:03:27.35    \nframe=  139 fps=0.7 q=51.0 size=     256KiB time=00:00:02.28 bitrate= 918.6kbits/s speed=0.011x elapsed=0:03:27.89    \nframe=  139 fps=0.7 q=51.0 size=     256KiB time=00:00:02.28 bitrate= 918.6kbits/s speed=0.011x elapsed=0:03:28.40    \nframe=  140 fps=0.7 q=51.0 size=     256KiB time=00:00:02.30 bitrate= 912.0kbits/s speed=0.011x elapsed=0:03:28.93    \nframe=  141 fps=0.7 q=51.0 size=     256KiB time=00:00:02.31 bitrate= 905.4kbits/s speed=0.0111x elapsed=0:03:29.47    \nframe=  142 fps=0.7 q=51.0 size=     256KiB time=00:00:02.33 bitrate= 898.9kbits/s speed=0.0111x elapsed=0:03:29.99    \nframe=  142 fps=0.7 q=51.0 size=     256KiB time=00:00:02.33 bitrate= 898.9kbits/s speed=0.0111x elapsed=0:03:30.51    \nframe=  143 fps=0.7 q=51.0 size=     256KiB time=00:00:02.35 bitrate= 892.6kbits/s speed=0.0111x elapsed=0:03:31.03    \nframe=  145 fps=0.7 q=51.0 size=     256KiB time=00:00:02.38 bitrate= 880.1kbits/s speed=0.0113x elapsed=0:03:31.56    \nframe=  145 fps=0.7 q=51.0 size=     256KiB time=00:00:02.38 bitrate= 880.1kbits/s speed=0.0112x elapsed=0:03:32.09    \nframe=  146 fps=0.7 q=51.0 size=     256KiB time=00:00:02.40 bitrate= 874.0kbits/s speed=0.0113x elapsed=0:03:32.63    \nframe=  147 fps=0.7 q=51.0 size=     256KiB time=00:00:02.41 bitrate= 867.9kbits/s speed=0.0113x elapsed=0:03:33.15    \nframe=  148 fps=0.7 q=51.0 size=     256KiB time=00:00:02.43 bitrate= 862.0kbits/s speed=0.0114x elapsed=0:03:33.68    \nframe=  149 fps=0.7 q=51.0 size=     256KiB time=00:00:02.45 bitrate= 856.1kbits/s speed=0.0114x elapsed=0:03:34.21    \nframe=  150 fps=0.7 q=51.0 size=     256KiB time=00:00:02.46 bitrate= 850.3kbits/s speed=0.0115x elapsed=0:03:34.74    \nframe=  152 fps=0.7 q=51.0 size=     256KiB time=00:00:02.48 bitrate= 844.6kbits/s speed=0.0115x elapsed=0:03:35.25    \nframe=  152 fps=0.7 q=51.0 size=     256KiB time=00:00:02.50 bitrate= 839.0kbits/s speed=0.0116x elapsed=0:03:35.79    \nframe=  153 fps=0.7 q=51.0 size=     256KiB time=00:00:02.51 bitrate= 833.4kbits/s speed=0.0116x elapsed=0:03:36.33    \nframe=  153 fps=0.7 q=51.0 size=     256KiB time=00:00:02.51 bitrate= 833.4kbits/s speed=0.0116x elapsed=0:03:36.84    \nframe=  154 fps=0.7 q=51.0 size=     256KiB time=00:00:02.53 bitrate= 828.0kbits/s speed=0.0117x elapsed=0:03:37.35    \nframe=  155 fps=0.7 q=51.0 size=     256KiB time=00:00:02.55 bitrate= 822.6kbits/s speed=0.0117x elapsed=0:03:37.90    \nframe=  155 fps=0.7 q=51.0 size=     256KiB time=00:00:02.55 bitrate= 822.6kbits/s speed=0.0117x elapsed=0:03:38.42    \nframe=  156 fps=0.7 q=51.0 size=     256KiB time=00:00:02.56 bitrate= 817.2kbits/s speed=0.0117x elapsed=0:03:38.97    \nframe=  156 fps=0.7 q=51.0 size=     256KiB time=00:00:02.56 bitrate= 817.2kbits/s speed=0.0117x elapsed=0:03:39.50    \nframe=  156 fps=0.7 q=51.0 size=     256KiB time=00:00:02.56 bitrate= 817.2kbits/s speed=0.0117x elapsed=0:03:40.05    \nframe=  156 fps=0.7 q=51.0 size=     256KiB time=00:00:02.56 bitrate= 817.2kbits/s speed=0.0116x elapsed=0:03:40.59    \nframe=  156 fps=0.7 q=51.0 size=     256KiB time=00:00:02.56 bitrate= 817.2kbits/s speed=0.0116x elapsed=0:03:41.18    \nframe=  157 fps=0.7 q=51.0 size=     256KiB time=00:00:02.58 bitrate= 811.9kbits/s speed=0.0116x elapsed=0:03:41.76    \nframe=  158 fps=0.7 q=51.0 size=     256KiB time=00:00:02.60 bitrate= 806.7kbits/s speed=0.0117x elapsed=0:03:42.36    \nframe=  158 fps=0.7 q=51.0 size=     256KiB time=00:00:02.60 bitrate= 806.7kbits/s speed=0.0117x elapsed=0:03:42.88    \nframe=  158 fps=0.7 q=51.0 size=     256KiB time=00:00:02.60 bitrate= 806.7kbits/s speed=0.0116x elapsed=0:03:43.44    \nframe=  159 fps=0.7 q=51.0 size=     256KiB time=00:00:02.61 bitrate= 801.6kbits/s speed=0.0117x elapsed=0:03:43.99    \nframe=  159 fps=0.7 q=51.0 size=     256KiB time=00:00:02.61 bitrate= 801.6kbits/s speed=0.0117x elapsed=0:03:44.56    \nframe=  159 fps=0.7 q=51.0 size=     256KiB time=00:00:02.61 bitrate= 801.6kbits/s speed=0.0116x elapsed=0:03:45.16    \nframe=  159 fps=0.7 q=51.0 size=     256KiB time=00:00:02.61 bitrate= 801.6kbits/s speed=0.0116x elapsed=0:03:45.74    \nframe=  160 fps=0.7 q=51.0 size=     256KiB time=00:00:02.63 bitrate= 796.5kbits/s speed=0.0116x elapsed=0:03:46.31    \nframe=  160 fps=0.7 q=51.0 size=     256KiB time=00:00:02.63 bitrate= 796.5kbits/s speed=0.0116x elapsed=0:03:46.90    \nframe=  160 fps=0.7 q=51.0 size=     256KiB time=00:00:02.63 bitrate= 796.5kbits/s speed=0.0116x elapsed=0:03:47.48    \nframe=  160 fps=0.7 q=51.0 size=     256KiB time=00:00:02.63 bitrate= 796.5kbits/s speed=0.0115x elapsed=0:03:48.02    \nframe=  160 fps=0.7 q=51.0 size=     256KiB time=00:00:02.63 bitrate= 796.5kbits/s speed=0.0115x elapsed=0:03:48.65    \nframe=  160 fps=0.7 q=51.0 size=     256KiB time=00:00:02.63 bitrate= 796.5kbits/s speed=0.0115x elapsed=0:03:49.19    \nframe=  161 fps=0.7 q=51.0 size=     256KiB time=00:00:02.65 bitrate= 791.5kbits/s speed=0.0115x elapsed=0:03:49.72    \nframe=  161 fps=0.7 q=51.0 size=     256KiB time=00:00:02.65 bitrate= 791.5kbits/s speed=0.0115x elapsed=0:03:50.29    \nframe=  162 fps=0.7 q=51.0 size=     256KiB time=00:00:02.66 bitrate= 786.6kbits/s speed=0.0115x elapsed=0:03:50.92    \nframe=  162 fps=0.7 q=51.0 size=     256KiB time=00:00:02.66 bitrate= 786.6kbits/s speed=0.0115x elapsed=0:03:51.45    \nframe=  162 fps=0.7 q=51.0 size=     256KiB time=00:00:02.66 bitrate= 786.6kbits/s speed=0.0115x elapsed=0:03:51.99    \nframe=  162 fps=0.7 q=51.0 size=     256KiB time=00:00:02.66 bitrate= 786.6kbits/s speed=0.0115x elapsed=0:03:52.51    \nframe=  163 fps=0.7 q=51.0 size=     256KiB time=00:00:02.68 bitrate= 781.7kbits/s speed=0.0115x elapsed=0:03:53.05    \nframe=  164 fps=0.7 q=51.0 size=     256KiB time=00:00:02.70 bitrate= 776.9kbits/s speed=0.0116x elapsed=0:03:53.59    \nframe=  165 fps=0.7 q=51.0 size=     256KiB time=00:00:02.71 bitrate= 772.1kbits/s speed=0.0116x elapsed=0:03:54.15    \nframe=  165 fps=0.7 q=51.0 size=     256KiB time=00:00:02.71 bitrate= 772.1kbits/s speed=0.0116x elapsed=0:03:54.67    \nframe=  165 fps=0.7 q=51.0 size=     256KiB time=00:00:02.71 bitrate= 772.1kbits/s speed=0.0116x elapsed=0:03:55.19    \nframe=  167 fps=0.7 q=51.0 size=     256KiB time=00:00:02.75 bitrate= 762.7kbits/s speed=0.0117x elapsed=0:03:55.71    \nframe=  167 fps=0.7 q=51.0 size=     256KiB time=00:00:02.75 bitrate= 762.7kbits/s speed=0.0116x elapsed=0:03:56.23    \nframe=  168 fps=0.7 q=51.0 size=     256KiB time=00:00:02.76 bitrate= 758.1kbits/s speed=0.0117x elapsed=0:03:56.77    \nframe=  168 fps=0.7 q=51.0 size=     256KiB time=00:00:02.76 bitrate= 758.1kbits/s speed=0.0117x elapsed=0:03:57.28    \nframe=  168 fps=0.7 q=51.0 size=     256KiB time=00:00:02.76 bitrate= 758.1kbits/s speed=0.0116x elapsed=0:03:57.86    \nframe=  169 fps=0.7 q=51.0 size=     256KiB time=00:00:02.78 bitrate= 753.6kbits/s speed=0.0117x elapsed=0:03:58.38    \nframe=  170 fps=0.7 q=51.0 size=     256KiB time=00:00:02.80 bitrate= 749.1kbits/s speed=0.0117x elapsed=0:03:58.89    \nframe=  170 fps=0.7 q=51.0 size=     256KiB time=00:00:02.80 bitrate= 749.1kbits/s speed=0.0117x elapsed=0:03:59.42    \nframe=  170 fps=0.7 q=51.0 size=     256KiB time=00:00:02.80 bitrate= 749.1kbits/s speed=0.0117x elapsed=0:03:59.96    \nframe=  172 fps=0.7 q=51.0 size=     256KiB time=00:00:02.83 bitrate= 740.3kbits/s speed=0.0118x elapsed=0:04:00.48    \nframe=  173 fps=0.7 q=51.0 size=     256KiB time=00:00:02.85 bitrate= 736.0kbits/s speed=0.0118x elapsed=0:04:01.06    \nframe=  173 fps=0.7 q=51.0 size=     256KiB time=00:00:02.85 bitrate= 736.0kbits/s speed=0.0118x elapsed=0:04:01.60    \nframe=  175 fps=0.7 q=51.0 size=     256KiB time=00:00:02.88 bitrate= 727.5kbits/s speed=0.0119x elapsed=0:04:02.12    \nframe=  175 fps=0.7 q=51.0 size=     256KiB time=00:00:02.88 bitrate= 727.5kbits/s speed=0.0119x elapsed=0:04:02.67    \nframe=  176 fps=0.7 q=51.0 size=     256KiB time=00:00:02.90 bitrate= 723.3kbits/s speed=0.0119x elapsed=0:04:03.21    \nframe=  177 fps=0.7 q=51.0 size=     256KiB time=00:00:02.91 bitrate= 719.1kbits/s speed=0.012x elapsed=0:04:03.75    \nframe=  177 fps=0.7 q=51.0 size=     256KiB time=00:00:02.91 bitrate= 719.1kbits/s speed=0.0119x elapsed=0:04:04.31    \nframe=  178 fps=0.7 q=51.0 size=     256KiB time=00:00:02.93 bitrate= 715.1kbits/s speed=0.012x elapsed=0:04:04.82    \nframe=  180 fps=0.7 q=51.0 size=     256KiB time=00:00:02.96 bitrate= 707.0kbits/s speed=0.0121x elapsed=0:04:05.37    \nframe=  180 fps=0.7 q=51.0 size=     256KiB time=00:00:02.96 bitrate= 707.0kbits/s speed=0.0121x elapsed=0:04:05.97    \nframe=  181 fps=0.7 q=51.0 size=     256KiB time=00:00:02.98 bitrate= 703.1kbits/s speed=0.0121x elapsed=0:04:06.48    \nframe=  182 fps=0.7 q=51.0 size=     256KiB time=00:00:03.00 bitrate= 699.2kbits/s speed=0.0121x elapsed=0:04:07.01    \nframe=  183 fps=0.7 q=51.0 size=     256KiB time=00:00:03.01 bitrate= 695.3kbits/s speed=0.0122x elapsed=0:04:07.55    \nframe=  184 fps=0.7 q=51.0 size=     256KiB time=00:00:03.03 bitrate= 691.5kbits/s speed=0.0122x elapsed=0:04:08.12    \nframe=  185 fps=0.7 q=51.0 size=     256KiB time=00:00:03.05 bitrate= 687.7kbits/s speed=0.0123x elapsed=0:04:08.65    \nframe=  186 fps=0.7 q=51.0 size=     256KiB time=00:00:03.06 bitrate= 684.0kbits/s speed=0.0123x elapsed=0:04:09.20    \nframe=  186 fps=0.7 q=51.0 size=     256KiB time=00:00:03.06 bitrate= 684.0kbits/s speed=0.0123x elapsed=0:04:09.72    \nframe=  188 fps=0.8 q=51.0 size=     256KiB time=00:00:03.10 bitrate= 676.6kbits/s speed=0.0124x elapsed=0:04:10.24    \nframe=  188 fps=0.7 q=51.0 size=     256KiB time=00:00:03.10 bitrate= 676.6kbits/s speed=0.0124x elapsed=0:04:10.76    \nframe=  189 fps=0.8 q=51.0 size=     256KiB time=00:00:03.11 bitrate= 673.0kbits/s speed=0.0124x elapsed=0:04:11.28    \nframe=  191 fps=0.8 q=51.0 size=     256KiB time=00:00:03.15 bitrate= 665.9kbits/s speed=0.0125x elapsed=0:04:11.80    \nframe=  191 fps=0.8 q=51.0 size=     256KiB time=00:00:03.15 bitrate= 665.9kbits/s speed=0.0125x elapsed=0:04:12.31    \nframe=  191 fps=0.8 q=51.0 size=     256KiB time=00:00:03.15 bitrate= 665.9kbits/s speed=0.0125x elapsed=0:04:12.83    \nframe=  193 fps=0.8 q=51.0 size=     256KiB time=00:00:03.18 bitrate= 658.9kbits/s speed=0.0126x elapsed=0:04:13.35    \nframe=  193 fps=0.8 q=51.0 size=     256KiB time=00:00:03.18 bitrate= 658.9kbits/s speed=0.0125x elapsed=0:04:13.88    \nframe=  194 fps=0.8 q=51.0 size=     256KiB time=00:00:03.20 bitrate= 655.5kbits/s speed=0.0126x elapsed=0:04:14.42    \nframe=  195 fps=0.8 q=51.0 size=     256KiB time=00:00:03.21 bitrate= 652.1kbits/s speed=0.0126x elapsed=0:04:14.94    \nframe=  195 fps=0.8 q=51.0 size=     256KiB time=00:00:03.21 bitrate= 652.1kbits/s speed=0.0126x elapsed=0:04:15.46    \nframe=  197 fps=0.8 q=51.0 size=     256KiB time=00:00:03.25 bitrate= 645.4kbits/s speed=0.0127x elapsed=0:04:15.97    \nframe=  198 fps=0.8 q=51.0 size=     256KiB time=00:00:03.26 bitrate= 642.1kbits/s speed=0.0127x elapsed=0:04:16.51    \nframe=  199 fps=0.8 q=51.0 size=     256KiB time=00:00:03.28 bitrate= 638.8kbits/s speed=0.0128x elapsed=0:04:17.04    \nx265 [warning]: poc:202, VBV underflow (-1509 bits)\nframe=  200 fps=0.8 q=51.0 size=     256KiB time=00:00:03.30 bitrate= 635.6kbits/s speed=0.0128x elapsed=0:04:17.55    \nframe=  200 fps=0.8 q=51.0 size=     256KiB time=00:00:03.30 bitrate= 635.6kbits/s speed=0.0128x elapsed=0:04:18.08    \nx265 [warning]: poc:200, VBV underflow (-1397 bits)\nframe=  201 fps=0.8 q=51.0 size=     256KiB time=00:00:03.31 bitrate= 632.4kbits/s speed=0.0128x elapsed=0:04:18.60    \nframe=  202 fps=0.8 q=51.0 size=     256KiB time=00:00:03.33 bitrate= 629.3kbits/s speed=0.0129x elapsed=0:04:19.11    \nframe=  203 fps=0.8 q=51.0 size=     256KiB time=00:00:03.35 bitrate= 626.1kbits/s speed=0.0129x elapsed=0:04:19.62    \nframe=  203 fps=0.8 q=51.0 size=     256KiB time=00:00:03.35 bitrate= 626.1kbits/s speed=0.0129x elapsed=0:04:20.14    \nx265 [warning]: poc:206, VBV underflow (-18208 bits)\nframe=  204 fps=0.8 q=51.0 size=     256KiB time=00:00:03.36 bitrate= 623.0kbits/s speed=0.0129x elapsed=0:04:20.66    \nframe=  204 fps=0.8 q=51.0 size=     256KiB time=00:00:03.36 bitrate= 623.0kbits/s speed=0.0129x elapsed=0:04:21.19    \nframe=  204 fps=0.8 q=51.0 size=     256KiB time=00:00:03.36 bitrate= 623.0kbits/s speed=0.0129x elapsed=0:04:21.71    \nframe=  204 fps=0.8 q=51.0 size=     256KiB time=00:00:03.36 bitrate= 623.0kbits/s speed=0.0128x elapsed=0:04:22.22    \nx265 [warning]: poc:204, VBV underflow (-2661 bits)\nframe=  205 fps=0.8 q=51.0 size=     256KiB time=00:00:03.38 bitrate= 620.0kbits/s speed=0.0129x elapsed=0:04:22.73    \nframe=  207 fps=0.8 q=51.0 size=     256KiB time=00:00:03.41 bitrate= 613.9kbits/s speed=0.013x elapsed=0:04:23.27    \nframe=  207 fps=0.8 q=51.0 size=     256KiB time=00:00:03.41 bitrate= 613.9kbits/s speed=0.013x elapsed=0:04:23.81    \nframe=  207 fps=0.8 q=51.0 size=     256KiB time=00:00:03.41 bitrate= 613.9kbits/s speed=0.0129x elapsed=0:04:24.35    \nx265 [warning]: poc:210, VBV underflow (-15144 bits)\nx265 [warning]: poc:208, VBV underflow (-1725 bits)\nframe=  209 fps=0.8 q=51.0 size=     512KiB time=00:00:03.45 bitrate=1215.8kbits/s speed=0.013x elapsed=0:04:24.88    \nframe=  210 fps=0.8 q=51.0 size=     512KiB time=00:00:03.46 bitrate=1210.0kbits/s speed=0.0131x elapsed=0:04:25.39    \nframe=  210 fps=0.8 q=51.0 size=     512KiB time=00:00:03.46 bitrate=1210.0kbits/s speed=0.013x elapsed=0:04:25.91    \nframe=  210 fps=0.8 q=51.0 size=     512KiB time=00:00:03.46 bitrate=1210.0kbits/s speed=0.013x elapsed=0:04:26.45    \nx265 [warning]: poc:214, VBV underflow (-13976 bits)\nframe=  212 fps=0.8 q=51.0 size=     512KiB time=00:00:03.50 bitrate=1198.5kbits/s speed=0.0131x elapsed=0:04:26.97    \nx265 [warning]: poc:212, VBV underflow (-637 bits)\nframe=  213 fps=0.8 q=51.0 size=     512KiB time=00:00:03.51 bitrate=1192.8kbits/s speed=0.0131x elapsed=0:04:27.50    \nframe=  214 fps=0.8 q=51.0 size=     512KiB time=00:00:03.53 bitrate=1187.2kbits/s speed=0.0132x elapsed=0:04:28.01    \nframe=  214 fps=0.8 q=51.0 size=     512KiB time=00:00:03.53 bitrate=1187.2kbits/s speed=0.0132x elapsed=0:04:28.54    \nframe=  215 fps=0.8 q=51.0 size=     512KiB time=00:00:03.55 bitrate=1181.6kbits/s speed=0.0132x elapsed=0:04:29.07    \nframe=  215 fps=0.8 q=51.0 size=     512KiB time=00:00:03.55 bitrate=1181.6kbits/s speed=0.0132x elapsed=0:04:29.59    \nx265 [warning]: poc:218, VBV underflow (-5120 bits)\nx265 [warning]: poc:216, VBV underflow (-605 bits)\nframe=  217 fps=0.8 q=51.0 size=     512KiB time=00:00:03.58 bitrate=1170.6kbits/s speed=0.0133x elapsed=0:04:30.13    \nframe=  217 fps=0.8 q=51.0 size=     512KiB time=00:00:03.58 bitrate=1170.6kbits/s speed=0.0132x elapsed=0:04:30.66    \nframe=  218 fps=0.8 q=51.0 size=     512KiB time=00:00:03.60 bitrate=1165.2kbits/s speed=0.0133x elapsed=0:04:31.17    \nframe=  219 fps=0.8 q=51.0 size=     512KiB time=00:00:03.61 bitrate=1159.8kbits/s speed=0.0133x elapsed=0:04:31.68    \nx265 [warning]: poc:222, VBV underflow (-6208 bits)\nx265 [warning]: poc:220, VBV underflow (-1461 bits)\nframe=  221 fps=0.8 q=51.0 size=     512KiB time=00:00:03.63 bitrate=1154.5kbits/s speed=0.0133x elapsed=0:04:32.20    \nframe=  221 fps=0.8 q=51.0 size=     512KiB time=00:00:03.65 bitrate=1149.2kbits/s speed=0.0134x elapsed=0:04:32.74    \nframe=  222 fps=0.8 q=51.0 size=     512KiB time=00:00:03.66 bitrate=1144.0kbits/s speed=0.0134x elapsed=0:04:33.29    \nframe=  222 fps=0.8 q=51.0 size=     512KiB time=00:00:03.66 bitrate=1144.0kbits/s speed=0.0134x elapsed=0:04:33.83    \nframe=  223 fps=0.8 q=51.0 size=     512KiB time=00:00:03.68 bitrate=1138.8kbits/s speed=0.0134x elapsed=0:04:34.41    \nframe=  223 fps=0.8 q=51.0 size=     512KiB time=00:00:03.68 bitrate=1138.8kbits/s speed=0.0134x elapsed=0:04:34.99    \nframe=  223 fps=0.8 q=51.0 size=     512KiB time=00:00:03.68 bitrate=1138.8kbits/s speed=0.0134x elapsed=0:04:35.61    \nx265 [warning]: poc:226, VBV underflow (-6976 bits)\nframe=  224 fps=0.8 q=51.0 size=     512KiB time=00:00:03.70 bitrate=1133.7kbits/s speed=0.0134x elapsed=0:04:36.18    \nframe=  224 fps=0.8 q=51.0 size=     512KiB time=00:00:03.70 bitrate=1133.7kbits/s speed=0.0134x elapsed=0:04:36.79    \nx265 [warning]: poc:224, VBV underflow (-197 bits)\nframe=  225 fps=0.8 q=51.0 size=     512KiB time=00:00:03.71 bitrate=1128.6kbits/s speed=0.0134x elapsed=0:04:37.34    \nframe=  225 fps=0.8 q=51.0 size=     512KiB time=00:00:03.71 bitrate=1128.6kbits/s speed=0.0134x elapsed=0:04:37.90    \nframe=  225 fps=0.8 q=51.0 size=     512KiB time=00:00:03.71 bitrate=1128.6kbits/s speed=0.0133x elapsed=0:04:38.48    \nframe=  225 fps=0.8 q=51.0 size=     512KiB time=00:00:03.71 bitrate=1128.6kbits/s speed=0.0133x elapsed=0:04:39.04    \nframe=  225 fps=0.8 q=51.0 size=     512KiB time=00:00:03.71 bitrate=1128.6kbits/s speed=0.0133x elapsed=0:04:39.59    \nframe=  227 fps=0.8 q=51.0 size=     512KiB time=00:00:03.75 bitrate=1118.6kbits/s speed=0.0134x elapsed=0:04:40.14    \nframe=  227 fps=0.8 q=51.0 size=     512KiB time=00:00:03.75 bitrate=1118.6kbits/s speed=0.0134x elapsed=0:04:40.67    \nframe=  227 fps=0.8 q=51.0 size=     512KiB time=00:00:03.75 bitrate=1118.6kbits/s speed=0.0133x elapsed=0:04:41.23    \nframe=  227 fps=0.8 q=51.0 size=     512KiB time=00:00:03.75 bitrate=1118.6kbits/s speed=0.0133x elapsed=0:04:41.75    \nframe=  227 fps=0.8 q=51.0 size=     512KiB time=00:00:03.75 bitrate=1118.6kbits/s speed=0.0133x elapsed=0:04:42.28    \nx265 [warning]: poc:230, VBV underflow (-4160 bits)\nframe=  228 fps=0.8 q=51.0 size=     512KiB time=00:00:03.76 bitrate=1113.6kbits/s speed=0.0133x elapsed=0:04:42.84    \nframe=  228 fps=0.8 q=51.0 size=     512KiB time=00:00:03.76 bitrate=1113.6kbits/s speed=0.0133x elapsed=0:04:43.40    \nframe=  229 fps=0.8 q=51.0 size=     512KiB time=00:00:03.78 bitrate=1108.7kbits/s speed=0.0133x elapsed=0:04:43.97    \nframe=  229 fps=0.8 q=51.0 size=     512KiB time=00:00:03.78 bitrate=1108.7kbits/s speed=0.0133x elapsed=0:04:44.54    \nframe=  229 fps=0.8 q=51.0 size=     512KiB time=00:00:03.78 bitrate=1108.7kbits/s speed=0.0133x elapsed=0:04:45.12    \nframe=  229 fps=0.8 q=51.0 size=     512KiB time=00:00:03.78 bitrate=1108.7kbits/s speed=0.0132x elapsed=0:04:45.65    \nframe=  230 fps=0.8 q=51.0 size=     512KiB time=00:00:03.80 bitrate=1103.9kbits/s speed=0.0133x elapsed=0:04:46.19    \nframe=  230 fps=0.8 q=51.0 size=     512KiB time=00:00:03.80 bitrate=1103.9kbits/s speed=0.0133x elapsed=0:04:46.76    \nframe=  230 fps=0.8 q=51.0 size=     512KiB time=00:00:03.80 bitrate=1103.9kbits/s speed=0.0132x elapsed=0:04:47.33    \nframe=  231 fps=0.8 q=51.0 size=     512KiB time=00:00:03.81 bitrate=1099.0kbits/s speed=0.0133x elapsed=0:04:47.90    \nframe=  231 fps=0.8 q=51.0 size=     512KiB time=00:00:03.81 bitrate=1099.0kbits/s speed=0.0132x elapsed=0:04:48.42    \nframe=  232 fps=0.8 q=51.0 size=     512KiB time=00:00:03.83 bitrate=1094.3kbits/s speed=0.0133x elapsed=0:04:49.00    \nframe=  232 fps=0.8 q=51.0 size=     512KiB time=00:00:03.83 bitrate=1094.3kbits/s speed=0.0132x elapsed=0:04:49.61    \nframe=  232 fps=0.8 q=51.0 size=     512KiB time=00:00:03.83 bitrate=1094.3kbits/s speed=0.0132x elapsed=0:04:50.16    \nframe=  232 fps=0.8 q=51.0 size=     512KiB time=00:00:03.83 bitrate=1094.3kbits/s speed=0.0132x elapsed=0:04:50.72    \nframe=  232 fps=0.8 q=51.0 size=     512KiB time=00:00:03.83 bitrate=1094.3kbits/s speed=0.0132x elapsed=0:04:51.32    \nframe=  232 fps=0.8 q=51.0 size=     512KiB time=00:00:03.83 bitrate=1094.3kbits/s speed=0.0131x elapsed=0:04:51.85    \nframe=  234 fps=0.8 q=51.0 size=     512KiB time=00:00:03.85 bitrate=1089.5kbits/s speed=0.0132x elapsed=0:04:52.41    \nframe=  234 fps=0.8 q=51.0 size=     512KiB time=00:00:03.86 bitrate=1084.8kbits/s speed=0.0132x elapsed=0:04:52.96    \nframe=  234 fps=0.8 q=51.0 size=     512KiB time=00:00:03.86 bitrate=1084.8kbits/s speed=0.0132x elapsed=0:04:53.49    \nframe=  234 fps=0.8 q=51.0 size=     512KiB time=00:00:03.86 bitrate=1084.8kbits/s speed=0.0131x elapsed=0:04:54.07    \nframe=  234 fps=0.8 q=51.0 size=     512KiB time=00:00:03.86 bitrate=1084.8kbits/s speed=0.0131x elapsed=0:04:54.59    \nframe=  235 fps=0.8 q=51.0 size=     512KiB time=00:00:03.88 bitrate=1080.2kbits/s speed=0.0132x elapsed=0:04:55.14    \nx265 [warning]: poc:238, VBV underflow (-11523 bits)\nframe=  236 fps=0.8 q=51.0 size=     512KiB time=00:00:03.90 bitrate=1075.6kbits/s speed=0.0132x elapsed=0:04:55.67    \nframe=  236 fps=0.8 q=51.0 size=     512KiB time=00:00:03.90 bitrate=1075.6kbits/s speed=0.0132x elapsed=0:04:56.30    \nframe=  236 fps=0.8 q=51.0 size=     512KiB time=00:00:03.90 bitrate=1075.6kbits/s speed=0.0131x elapsed=0:04:56.90    \nx265 [warning]: poc:236, VBV underflow (-2565 bits)\nframe=  237 fps=0.8 q=51.0 size=     512KiB time=00:00:03.91 bitrate=1071.0kbits/s speed=0.0132x elapsed=0:04:57.43    \nframe=  237 fps=0.8 q=51.0 size=     512KiB time=00:00:03.91 bitrate=1071.0kbits/s speed=0.0131x elapsed=0:04:57.96    \nframe=  237 fps=0.8 q=51.0 size=     512KiB time=00:00:03.91 bitrate=1071.0kbits/s speed=0.0131x elapsed=0:04:58.57    \nframe=  237 fps=0.8 q=51.0 size=     512KiB time=00:00:03.91 bitrate=1071.0kbits/s speed=0.0131x elapsed=0:04:59.12    \nframe=  239 fps=0.8 q=51.0 size=     512KiB time=00:00:03.95 bitrate=1061.9kbits/s speed=0.0132x elapsed=0:04:59.63    \nx265 [warning]: poc:242, VBV underflow (-11856 bits)\nframe=  240 fps=0.8 q=51.0 size=     512KiB time=00:00:03.96 bitrate=1057.5kbits/s speed=0.0132x elapsed=0:05:00.18    \nframe=  240 fps=0.8 q=51.0 size=     512KiB time=00:00:03.96 bitrate=1057.5kbits/s speed=0.0132x elapsed=0:05:00.76    \nframe=  240 fps=0.8 q=51.0 size=     512KiB time=00:00:03.96 bitrate=1057.5kbits/s speed=0.0132x elapsed=0:05:01.30    \nx265 [warning]: poc:240, VBV underflow (-2381 bits)\nframe=  241 fps=0.8 q=51.0 size=     512KiB time=00:00:03.98 bitrate=1053.1kbits/s speed=0.0132x elapsed=0:05:01.87    \nframe=  241 fps=0.8 q=51.0 size=     512KiB time=00:00:03.98 bitrate=1053.1kbits/s speed=0.0132x elapsed=0:05:02.41    \nframe=  241 fps=0.8 q=51.0 size=     512KiB time=00:00:03.98 bitrate=1053.1kbits/s speed=0.0131x elapsed=0:05:02.95    \nframe=  242 fps=0.8 q=51.0 size=     512KiB time=00:00:04.00 bitrate=1048.7kbits/s speed=0.0132x elapsed=0:05:03.51    \nframe=  243 fps=0.8 q=51.0 size=     512KiB time=00:00:04.01 bitrate=1044.3kbits/s speed=0.0132x elapsed=0:05:04.10    \nx265 [warning]: poc:246, VBV underflow (-8312 bits)\nframe=  244 fps=0.8 q=51.0 size=     512KiB time=00:00:04.03 bitrate=1040.0kbits/s speed=0.0132x elapsed=0:05:04.62    \nframe=  244 fps=0.8 q=51.0 size=     512KiB time=00:00:04.03 bitrate=1040.0kbits/s speed=0.0132x elapsed=0:05:05.18    \nframe=  244 fps=0.8 q=51.0 size=     512KiB time=00:00:04.03 bitrate=1040.0kbits/s speed=0.0132x elapsed=0:05:05.74    \nx265 [warning]: poc:244, VBV underflow (-1573 bits)\nframe=  245 fps=0.8 q=51.0 size=     512KiB time=00:00:04.05 bitrate=1035.7kbits/s speed=0.0132x elapsed=0:05:06.30    \nframe=  246 fps=0.8 q=51.0 size=     512KiB time=00:00:04.06 bitrate=1031.5kbits/s speed=0.0133x elapsed=0:05:06.82    \nframe=  246 fps=0.8 q=51.0 size=     512KiB time=00:00:04.06 bitrate=1031.5kbits/s speed=0.0132x elapsed=0:05:07.34    \nframe=  246 fps=0.8 q=51.0 size=     512KiB time=00:00:04.06 bitrate=1031.5kbits/s speed=0.0132x elapsed=0:05:07.88    \nframe=  246 fps=0.8 q=51.0 size=     512KiB time=00:00:04.06 bitrate=1031.5kbits/s speed=0.0132x elapsed=0:05:08.40    \nframe=  246 fps=0.8 q=51.0 size=     512KiB time=00:00:04.06 bitrate=1031.5kbits/s speed=0.0132x elapsed=0:05:08.97    \nframe=  246 fps=0.8 q=51.0 size=     512KiB time=00:00:04.06 bitrate=1031.5kbits/s speed=0.0131x elapsed=0:05:09.58    \nframe=  247 fps=0.8 q=51.0 size=     512KiB time=00:00:04.08 bitrate=1027.3kbits/s speed=0.0132x elapsed=0:05:10.15    \nframe=  247 fps=0.8 q=51.0 size=     512KiB time=00:00:04.08 bitrate=1027.3kbits/s speed=0.0131x elapsed=0:05:10.76    \nx265 [warning]: poc:250, VBV underflow (-19856 bits)\nframe=  248 fps=0.8 q=51.0 size=     512KiB time=00:00:04.10 bitrate=1023.1kbits/s speed=0.0132x elapsed=0:05:11.37    \nframe=  248 fps=0.8 q=51.0 size=     512KiB time=00:00:04.10 bitrate=1023.1kbits/s speed=0.0131x elapsed=0:05:11.98    \nframe=  248 fps=0.8 q=51.0 size=     512KiB time=00:00:04.10 bitrate=1023.1kbits/s speed=0.0131x elapsed=0:05:12.59    \nframe=  248 fps=0.8 q=51.0 size=     512KiB time=00:00:04.10 bitrate=1023.1kbits/s speed=0.0131x elapsed=0:05:13.19    \nframe=  248 fps=0.8 q=51.0 size=     512KiB time=00:00:04.10 bitrate=1023.1kbits/s speed=0.0131x elapsed=0:05:13.73    \nx265 [warning]: poc:248, VBV underflow (-1181 bits)\nframe=  249 fps=0.8 q=51.0 size=     512KiB time=00:00:04.11 bitrate=1018.9kbits/s speed=0.0131x elapsed=0:05:14.31    \nframe=  249 fps=0.8 q=51.0 size=     512KiB time=00:00:04.11 bitrate=1018.9kbits/s speed=0.0131x elapsed=0:05:14.91    \nframe=  249 fps=0.8 q=51.0 size=     512KiB time=00:00:04.11 bitrate=1018.9kbits/s speed=0.013x elapsed=0:05:15.49    \nframe=  250 fps=0.8 q=51.0 size=     512KiB time=00:00:04.13 bitrate=1014.8kbits/s speed=0.0131x elapsed=0:05:16.04    \nframe=  250 fps=0.8 q=51.0 size=     512KiB time=00:00:04.13 bitrate=1014.8kbits/s speed=0.0131x elapsed=0:05:16.67    \nframe=  250 fps=0.8 q=51.0 size=     512KiB time=00:00:04.13 bitrate=1014.8kbits/s speed=0.013x elapsed=0:05:17.24    \nframe=  250 fps=0.8 q=51.0 size=     512KiB time=00:00:04.13 bitrate=1014.8kbits/s speed=0.013x elapsed=0:05:17.78    \nframe=  250 fps=0.8 q=51.0 size=     512KiB time=00:00:04.13 bitrate=1014.8kbits/s speed=0.013x elapsed=0:05:18.30    \nframe=  251 fps=0.8 q=51.0 size=     512KiB time=00:00:04.15 bitrate=1010.8kbits/s speed=0.013x elapsed=0:05:18.83    \nx265 [warning]: poc:254, VBV underflow (-7920 bits)\nframe=  252 fps=0.8 q=51.0 size=     512KiB time=00:00:04.16 bitrate=1006.7kbits/s speed=0.013x elapsed=0:05:19.36    \nx265 [warning]: poc:252, VBV underflow (-1141 bits)\nframe=  254 fps=0.8 q=51.0 size=     512KiB time=00:00:04.20 bitrate= 998.7kbits/s speed=0.0131x elapsed=0:05:19.88    \nframe=  254 fps=0.8 q=51.0 size=     512KiB time=00:00:04.20 bitrate= 998.7kbits/s speed=0.0131x elapsed=0:05:20.39    \nframe=  254 fps=0.8 q=51.0 size=     512KiB time=00:00:04.20 bitrate= 998.7kbits/s speed=0.0131x elapsed=0:05:20.93    \nframe=  255 fps=0.8 q=51.0 size=     512KiB time=00:00:04.21 bitrate= 994.8kbits/s speed=0.0131x elapsed=0:05:21.45    \nx265 [warning]: poc:258, VBV underflow (-9672 bits)\nframe=  256 fps=0.8 q=51.0 size=     512KiB time=00:00:04.23 bitrate= 990.9kbits/s speed=0.0131x elapsed=0:05:21.97    \nx265 [warning]: poc:256, VBV underflow (-685 bits)\nframe=  257 fps=0.8 q=51.0 size=     512KiB time=00:00:04.25 bitrate= 987.0kbits/s speed=0.0132x elapsed=0:05:22.51    \nframe=  257 fps=0.8 q=51.0 size=     512KiB time=00:00:04.25 bitrate= 987.0kbits/s speed=0.0132x elapsed=0:05:23.03    \nframe=  258 fps=0.8 q=51.0 size=     512KiB time=00:00:04.26 bitrate= 983.1kbits/s speed=0.0132x elapsed=0:05:23.55    \nframe=  259 fps=0.8 q=51.0 size=     512KiB time=00:00:04.28 bitrate= 979.3kbits/s speed=0.0132x elapsed=0:05:24.07    \nx265 [warning]: poc:262, VBV underflow (-10424 bits)\nframe=  260 fps=0.8 q=51.0 size=     512KiB time=00:00:04.30 bitrate= 975.5kbits/s speed=0.0132x elapsed=0:05:24.61    \nx265 [warning]: poc:260, VBV underflow (-2229 bits)\nframe=  261 fps=0.8 q=51.0 size=     512KiB time=00:00:04.31 bitrate= 971.7kbits/s speed=0.0133x elapsed=0:05:25.14    \nframe=  262 fps=0.8 q=51.0 size=     512KiB time=00:00:04.33 bitrate= 968.0kbits/s speed=0.0133x elapsed=0:05:25.68    \nframe=  263 fps=0.8 q=51.0 size=     512KiB time=00:00:04.35 bitrate= 964.3kbits/s speed=0.0133x elapsed=0:05:26.20    \nx265 [warning]: poc:266, VBV underflow (-13064 bits)\nframe=  264 fps=0.8 q=51.0 size=     512KiB time=00:00:04.36 bitrate= 960.6kbits/s speed=0.0134x elapsed=0:05:26.71    \nx265 [warning]: poc:264, VBV underflow (-2717 bits)\nframe=  265 fps=0.8 q=51.0 size=     512KiB time=00:00:04.38 bitrate= 957.0kbits/s speed=0.0134x elapsed=0:05:27.25    \nframe=  266 fps=0.8 q=51.0 size=     512KiB time=00:00:04.40 bitrate= 953.3kbits/s speed=0.0134x elapsed=0:05:27.78    \nframe=  266 fps=0.8 q=51.0 size=     512KiB time=00:00:04.40 bitrate= 953.3kbits/s speed=0.0134x elapsed=0:05:28.31    \nframe=  267 fps=0.8 q=51.0 size=     512KiB time=00:00:04.41 bitrate= 949.7kbits/s speed=0.0134x elapsed=0:05:28.85    \nx265 [warning]: poc:270, VBV underflow (-15544 bits)\nframe=  268 fps=0.8 q=51.0 size=     512KiB time=00:00:04.43 bitrate= 946.2kbits/s speed=0.0135x elapsed=0:05:29.38    \nframe=  268 fps=0.8 q=51.0 size=     512KiB time=00:00:04.43 bitrate= 946.2kbits/s speed=0.0134x elapsed=0:05:29.91    \nx265 [warning]: poc:268, VBV underflow (-2701 bits)\nframe=  269 fps=0.8 q=51.0 size=     512KiB time=00:00:04.45 bitrate= 942.6kbits/s speed=0.0135x elapsed=0:05:30.46    \nframe=  270 fps=0.8 q=51.0 size=     512KiB time=00:00:04.46 bitrate= 939.1kbits/s speed=0.0135x elapsed=0:05:31.00    \nframe=  270 fps=0.8 q=51.0 size=     512KiB time=00:00:04.46 bitrate= 939.1kbits/s speed=0.0135x elapsed=0:05:31.53    \nframe=  271 fps=0.8 q=51.0 size=     512KiB time=00:00:04.48 bitrate= 935.6kbits/s speed=0.0135x elapsed=0:05:32.05    \nframe=  271 fps=0.8 q=51.0 size=     512KiB time=00:00:04.48 bitrate= 935.6kbits/s speed=0.0135x elapsed=0:05:32.60    \nx265 [warning]: poc:274, VBV underflow (-16480 bits)\nx265 [warning]: poc:272, VBV underflow (-2669 bits)\nframe=  272 fps=0.8 q=51.0 size=     512KiB time=00:00:04.50 bitrate= 932.1kbits/s speed=0.0135x elapsed=0:05:33.12    \nframe=  272 fps=0.8 q=51.0 size=     512KiB time=00:00:04.50 bitrate= 932.1kbits/s speed=0.0135x elapsed=0:05:33.64    \nframe=  273 fps=0.8 q=51.0 size=     512KiB time=00:00:04.51 bitrate= 928.7kbits/s speed=0.0135x elapsed=0:05:34.17    \nframe=  273 fps=0.8 q=51.0 size=     512KiB time=00:00:04.51 bitrate= 928.7kbits/s speed=0.0135x elapsed=0:05:34.69    \nframe=  275 fps=0.8 q=51.0 size=     512KiB time=00:00:04.55 bitrate= 921.9kbits/s speed=0.0136x elapsed=0:05:35.21    \nframe=  275 fps=0.8 q=51.0 size=     512KiB time=00:00:04.55 bitrate= 921.9kbits/s speed=0.0136x elapsed=0:05:35.73    \nframe=  275 fps=0.8 q=51.0 size=     512KiB time=00:00:04.55 bitrate= 921.9kbits/s speed=0.0135x elapsed=0:05:36.26    \nx265 [warning]: poc:278, VBV underflow (-14304 bits)\nx265 [warning]: poc:276, VBV underflow (-2109 bits)\nframe=  277 fps=0.8 q=51.0 size=     512KiB time=00:00:04.58 bitrate= 915.2kbits/s speed=0.0136x elapsed=0:05:36.80    \nframe=  277 fps=0.8 q=51.0 size=     512KiB time=00:00:04.58 bitrate= 915.2kbits/s speed=0.0136x elapsed=0:05:37.32    \nframe=  279 fps=0.8 q=51.0 size=     512KiB time=00:00:04.61 bitrate= 908.6kbits/s speed=0.0137x elapsed=0:05:37.85    \nx265 [warning]: poc:282, VBV underflow (-17440 bits)\nframe=  280 fps=0.8 q=51.0 size=     512KiB time=00:00:04.63 bitrate= 905.3kbits/s speed=0.0137x elapsed=0:05:38.38    \nframe=  280 fps=0.8 q=51.0 size=     512KiB time=00:00:04.63 bitrate= 905.3kbits/s speed=0.0137x elapsed=0:05:38.90    \nx265 [warning]: poc:280, VBV underflow (-2661 bits)\nframe=  281 fps=0.8 q=51.0 size=     512KiB time=00:00:04.65 bitrate= 902.1kbits/s speed=0.0137x elapsed=0:05:39.43    \nframe=  281 fps=0.8 q=51.0 size=     512KiB time=00:00:04.65 bitrate= 902.1kbits/s speed=0.0137x elapsed=0:05:39.95    \nframe=  283 fps=0.8 q=51.0 size=     512KiB time=00:00:04.68 bitrate= 895.7kbits/s speed=0.0138x elapsed=0:05:40.45    \nx265 [warning]: poc:284, VBV underflow (-2672 bits)\nframe=  284 fps=0.8 q=51.0 size=     512KiB time=00:00:04.70 bitrate= 892.5kbits/s speed=0.0138x elapsed=0:05:40.98    \nframe=  285 fps=0.8 q=51.0 size=     512KiB time=00:00:04.71 bitrate= 889.3kbits/s speed=0.0138x elapsed=0:05:41.51    \nx265 [warning]: poc:288, VBV underflow (-28131 bits)\nframe=  286 fps=0.8 q=51.0 size=     512KiB time=00:00:04.73 bitrate= 886.2kbits/s speed=0.0138x elapsed=0:05:42.03    \nframe=  286 fps=0.8 q=51.0 size=     512KiB time=00:00:04.73 bitrate= 886.2kbits/s speed=0.0138x elapsed=0:05:42.59    \nx265 [warning]: poc:286, VBV underflow (-325 bits)\nframe=  287 fps=0.8 q=51.0 size=     512KiB time=00:00:04.75 bitrate= 883.1kbits/s speed=0.0138x elapsed=0:05:43.12    \nframe=  287 fps=0.8 q=51.0 size=     512KiB time=00:00:04.75 bitrate= 883.1kbits/s speed=0.0138x elapsed=0:05:43.62    \nframe=  289 fps=0.8 q=51.0 size=     512KiB time=00:00:04.78 bitrate= 876.9kbits/s speed=0.0139x elapsed=0:05:44.13    \nframe=  289 fps=0.8 q=51.0 size=     512KiB time=00:00:04.78 bitrate= 876.9kbits/s speed=0.0139x elapsed=0:05:44.67    \nframe=  290 fps=0.8 q=51.0 size=     512KiB time=00:00:04.80 bitrate= 873.9kbits/s speed=0.0139x elapsed=0:05:45.18    \nframe=  291 fps=0.8 q=51.0 size=     512KiB time=00:00:04.81 bitrate= 870.9kbits/s speed=0.0139x elapsed=0:05:45.71    \nx265 [warning]: poc:294, VBV underflow (-27107 bits)\nframe=  292 fps=0.8 q=51.0 size=     512KiB time=00:00:04.83 bitrate= 867.9kbits/s speed=0.014x elapsed=0:05:46.23    \nx265 [warning]: poc:292, VBV underflow (-1485 bits)\nframe=  293 fps=0.8 q=51.0 size=     512KiB time=00:00:04.85 bitrate= 864.9kbits/s speed=0.014x elapsed=0:05:46.77    \nframe=  294 fps=0.8 q=51.0 size=     512KiB time=00:00:04.86 bitrate= 861.9kbits/s speed=0.014x elapsed=0:05:47.29    \nframe=  294 fps=0.8 q=51.0 size=     512KiB time=00:00:04.86 bitrate= 861.9kbits/s speed=0.014x elapsed=0:05:47.83    \nx265 [warning]: poc:298, VBV underflow (-28536 bits)\nframe=  296 fps=0.8 q=51.0 size=     512KiB time=00:00:04.90 bitrate= 856.1kbits/s speed=0.0141x elapsed=0:05:48.35    \nx265 [warning]: poc:296, VBV underflow (-1629 bits)\nframe=  297 fps=0.9 q=51.0 size=     512KiB time=00:00:04.91 bitrate= 853.2kbits/s speed=0.0141x elapsed=0:05:48.88    \nframe=  297 fps=0.9 q=51.0 size=     512KiB time=00:00:04.91 bitrate= 853.2kbits/s speed=0.0141x elapsed=0:05:49.41    \nframe=  298 fps=0.9 q=51.0 size=     512KiB time=00:00:04.93 bitrate= 850.3kbits/s speed=0.0141x elapsed=0:05:49.94    \nframe=  298 fps=0.9 q=51.0 size=     512KiB time=00:00:04.93 bitrate= 850.3kbits/s speed=0.0141x elapsed=0:05:50.46    \n[mp4 @ 0000024e19b2cfc0] Starting second pass: moving the moov atom to the beginning of the file\n[out#0/mp4 @ 0000024e19b1ac00] video:743KiB audio:0KiB subtitle:0KiB other streams:0KiB global headers:2KiB muxing overhead: 0.954879%\nframe=  300 fps=0.9 q=51.0 Lsize=     750KiB time=00:00:04.96 bitrate=1237.4kbits/s speed=0.0142x elapsed=0:05:50.60    \nx265 [info]: frame I:      2, Avg QP:50.98  kb/s: 2562.96 \nx265 [info]: frame P:     85, Avg QP:51.00  kb/s: 1993.77 \nx265 [info]: frame B:    213, Avg QP:51.00  kb/s: 892.38  \nx265 [info]: Weighted P-Frames: Y:55.3% UV:51.8%\n\nencoded 300 frames in 350.01s (0.86 fps), 1215.57 kb/s, Avg QP:51.00\n",
  "seconds": 351.0010738372803,
  "probe_out": {}
}